<?xml version="1.0" encoding="UTF-8"?>
<svg id="_レイヤー_2" data-name="レイヤー 2" xmlns="http://www.w3.org/2000/svg" viewBox="0 0 136.12 123.12">
  <defs>
    <style>
      .cls-1 {
        fill: #4b713d;
      }

      .cls-1, .cls-2, .cls-3 {
        stroke-width: 0px;
      }

      .cls-4, .cls-5 {
        fill: none;
        stroke: #4b713d;
        stroke-miterlimit: 10;
        stroke-width: 2px;
      }

      .cls-2 {
        fill: #fff;
      }

      .cls-5 {
        stroke-linecap: round;
      }

      .cls-3 {
        fill: #b09663;
      }
    </style>
  </defs>
  <g id="_レイヤー_1-2" data-name="レイヤー 1">
    <g>
      <path class="cls-1" d="m16.5,1.88C7.39,1.88,0,9.26,0,18.38s7.39,16.5,16.5,16.5,16.5-7.39,16.5-16.5S25.61,1.88,16.5,1.88Zm0,23.23c-3.72,0-6.73-3.01-6.73-6.73s3.01-6.73,6.73-6.73,6.73,3.01,6.73,6.73-3.01,6.73-6.73,6.73Z"/>
      <path class="cls-1" d="m119.62,0c-9.11,0-16.5,7.39-16.5,16.5s7.39,16.5,16.5,16.5,16.5-7.39,16.5-16.5S128.74,0,119.62,0Zm0,23.23c-3.72,0-6.73-3.01-6.73-6.73s3.01-6.73,6.73-6.73,6.73,3.01,6.73,6.73-3.01,6.73-6.73,6.73Z"/>
      <path class="cls-3" d="m129.25,60.12c8.02,21.65,3,63-61,63C8.25,123.12,1.73,79.96,9.25,60.12,20.25,31.12,27.25,9.12,69.25,9.12s50,24,60,51Z"/>
      <path class="cls-2" d="m94.25,62.12c9,19-12.19,31-26,31s-35-12-24-31c6.64-11.47,11.19-24,25-24s19.33,12.02,25,24Z"/>
      <circle class="cls-1" cx="37.25" cy="47.62" r="4"/>
      <circle class="cls-1" cx="100.25" cy="47.62" r="4"/>
      <circle class="cls-1" cx="68.25" cy="49.12" r="4"/>
      <path class="cls-5" d="m57.25,55.12s5,4,11,0c0,0,6.5,4.5,11.38,0"/>
      <line class="cls-4" x1="68.25" y1="47.12" x2="68.25" y2="55.12"/>
    </g>
  </g>
</svg>