<?xml version="1.0" encoding="UTF-8"?>
<svg id="_レイヤー_2" data-name="レイヤー 2" xmlns="http://www.w3.org/2000/svg" viewBox="0 0 506.57 126.52">
  <defs>
    <style>
      .cls-1 {
        fill: #f7f5d9;
        stroke-width: 3px;
      }

      .cls-1, .cls-2 {
        stroke: #4b713d;
        stroke-miterlimit: 10;
      }

      .cls-2 {
        fill: none;
        stroke-width: 5px;
      }

      .cls-3 {
        fill: #4b713d;
        stroke-width: 0px;
      }
    </style>
  </defs>
  <g id="_レイヤー_1-2" data-name="レイヤー 1">
    <g>
      <g>
        <g>
          <path class="cls-3" d="m498.78,22.57c-9.05,8.76-25.06,9.16-25.06,9.16,0,0,.84-13.82,9.89-22.58S506.5,0,506.5,0C506.5,0,507.84,13.81,498.78,22.57Z"/>
          <g>
            <path class="cls-3" d="m467.7,27.89c-2.52,12.83-13.91,18.49-13.89,18.49-.02,0-5.04-14.39-2.49-27.22C453.9,6.35,462.99,0,463.01.01c-.02,0,7.25,15.06,4.69,27.88Z"/>
            <path class="cls-3" d="m497.14,49.84s-9.37-12.26-20.73-14.7c-2.31-.5-4.53-.54-6.61-.31-2.34,5.67-6.34,9.47-9.18,11.61,3.72,3.54,9.2,7.69,15.48,9.06,11.72,2.56,21.11-5.63,21.03-5.66Z"/>
            <path class="cls-3" d="m474.13,64.46s-8.76-12.04-20.46-14.6c-2.38-.52-4.71-.6-6.91-.42-2.95,5.45-7.46,9.05-10.61,11.06,3.6,3.49,8.99,7.6,15.45,9.05,12.05,2.71,22.6-5.05,22.53-5.08Z"/>
            <path class="cls-3" d="m450.52,79.45s-8.16-11.78-20.2-14.49c-2.45-.55-4.88-.68-7.2-.55-3.55,5.18-8.56,8.53-12.02,10.39,3.48,3.43,8.79,7.5,15.42,9.03,12.38,2.88,24.07-4.35,24-4.38Z"/>
            <path class="cls-3" d="m423.41,93.14s-7.61-11.48-19.96-14.36c-2.52-.59-5.04-.77-7.47-.69-4.1,4.88-9.57,7.95-13.32,9.63,3.37,3.36,8.59,7.38,15.4,9.02,12.68,3.08,25.42-3.56,25.36-3.6Z"/>
            <path class="cls-3" d="m396.98,104.9s-7.07-11.14-19.73-14.21c-2.58-.62-5.19-.86-7.73-.86-4.63,4.54-10.54,7.3-14.56,8.79,3.27,3.28,8.41,7.25,15.37,9,12.96,3.29,26.72-2.67,26.65-2.71Z"/>
            <path class="cls-3" d="m370.6,117.01s-6.57-10.77-19.51-14.05c-2.64-.67-5.34-.97-7.97-1.04-5.13,4.16-11.46,6.58-15.74,7.85,3.17,3.2,8.24,7.11,15.35,8.98,13.23,3.53,27.94-1.68,27.87-1.73Z"/>
            <path class="cls-3" d="m334.03,126.42s-1.59-11.46-12.55-17.73c-2.22-1.27-4.66-2.21-7.12-2.92-6.57,2.65-13.59,3.44-18.16,3.67,1.62,3.73,4.68,8.51,10.57,11.88,10.95,6.27,27.3,5.15,27.26,5.11Z"/>
            <path class="cls-3" d="m445.76,41.56c-3.71,12.43-16.05,17.68-16.03,17.68-.02,0-4.14-14-.39-26.42,3.78-12.41,13.9-18.49,13.91-18.48-.02-.01,6.26,14.81,2.52,27.23Z"/>
            <path class="cls-3" d="m316.78,96.57c-5.7,11.65-21.58,9.09-21.57,9.1-.02,0-.17-6.47,5.57-18.1,5.77-11.62,13.99-20.01,14-20-.02-.01,7.74,17.37,2,29Z"/>
            <path class="cls-3" d="m423.78,57.57c-4.89,11.94-19.72,14.62-19.71,14.63-.02,0-3.24-13.53,1.68-25.45,4.96-11.9,16.1-17.66,16.11-17.65-.02-.01,6.84,16.55,1.91,28.47Z"/>
            <path class="cls-3" d="m396.78,72.57c-6.03,11.35-20.44,12.43-20.42,12.43-.02,0-2.38-12.99,3.67-24.33,6.09-11.32,18.21-16.66,18.22-16.65-.02-.01,4.58,17.22-1.47,28.55Z"/>
            <path class="cls-3" d="m370.78,80.57c-5.57,11.57-20.47,17.03-20.45,17.03-.02,0-3.29-11.98,2.31-23.53,5.63-11.54,17.93-18.24,17.95-18.23-.02-.01,5.8,13.18.2,24.73Z"/>
            <path class="cls-3" d="m343.78,93.57c-5.62,11.56-20.05,13.68-20.03,13.68-.02,0-3.5-11.17,2.16-22.72,5.69-11.53,18.28-19.04,18.3-19.03-.02-.01,5.23,16.52-.42,28.06Z"/>
          </g>
        </g>
        <g>
          <path class="cls-1" d="m222.53,89.67s8.67-3.2,13.76-11.51c0,0,2.89,17.38-13.76,11.51Z"/>
          <path class="cls-1" d="m221.26,91.34s3.45,7.83,3.59,19.71c0,0,12.75-9.21-3.59-19.71Z"/>
          <path class="cls-2" d="m282,107.85s-21.59,3.23-73.09-23.46"/>
        </g>
      </g>
      <g>
        <g>
          <path class="cls-3" d="m7.78,22.57c9.05,8.76,25.06,9.16,25.06,9.16,0,0-.84-13.82-9.89-22.58S.07,0,.07,0C.07,0-1.27,13.81,7.78,22.57Z"/>
          <g>
            <path class="cls-3" d="m38.87,27.89c2.52,12.83,13.91,18.49,13.89,18.49.02,0,5.04-14.39,2.49-27.22C52.67,6.35,43.58,0,43.56.01c.02,0-7.25,15.06-4.69,27.88Z"/>
            <path class="cls-3" d="m9.43,49.84s9.37-12.26,20.73-14.7c2.31-.5,4.53-.54,6.61-.31,2.34,5.67,6.34,9.47,9.18,11.61-3.72,3.54-9.2,7.69-15.48,9.06-11.72,2.56-21.11-5.63-21.03-5.66Z"/>
            <path class="cls-3" d="m32.43,64.46s8.76-12.04,20.46-14.6c2.38-.52,4.71-.6,6.91-.42,2.95,5.45,7.46,9.05,10.61,11.06-3.6,3.49-8.99,7.6-15.45,9.05-12.05,2.71-22.6-5.05-22.53-5.08Z"/>
            <path class="cls-3" d="m56.05,79.45s8.16-11.78,20.2-14.49c2.45-.55,4.88-.68,7.2-.55,3.55,5.18,8.56,8.53,12.02,10.39-3.48,3.43-8.79,7.5-15.42,9.03-12.38,2.88-24.07-4.35-24-4.38Z"/>
            <path class="cls-3" d="m83.15,93.14s7.61-11.48,19.96-14.36c2.52-.59,5.04-.77,7.47-.69,4.1,4.88,9.57,7.95,13.32,9.63-3.37,3.36-8.59,7.38-15.4,9.02-12.68,3.08-25.42-3.56-25.36-3.6Z"/>
            <path class="cls-3" d="m109.59,104.9s7.07-11.14,19.73-14.21c2.58-.62,5.19-.86,7.73-.86,4.63,4.54,10.54,7.3,14.56,8.79-3.27,3.28-8.41,7.25-15.37,9-12.96,3.29-26.72-2.67-26.65-2.71Z"/>
            <path class="cls-3" d="m135.96,117.01s6.57-10.77,19.51-14.05c2.64-.67,5.34-.97,7.97-1.04,5.13,4.16,11.46,6.58,15.74,7.85-3.17,3.2-8.24,7.11-15.35,8.98-13.23,3.53-27.94-1.68-27.87-1.73Z"/>
            <path class="cls-3" d="m172.54,126.42s1.59-11.46,12.55-17.73c2.22-1.27,4.66-2.21,7.12-2.92,6.57,2.65,13.59,3.44,18.16,3.67-1.62,3.73-4.68,8.51-10.57,11.88-10.95,6.27-27.3,5.15-27.26,5.11Z"/>
            <path class="cls-3" d="m60.81,41.56c3.71,12.43,16.05,17.68,16.03,17.68.02,0,4.14-14,.39-26.42-3.78-12.41-13.9-18.49-13.91-18.48.02-.01-6.26,14.81-2.52,27.23Z"/>
            <path class="cls-3" d="m189.78,96.57c5.7,11.65,21.58,9.09,21.57,9.1.02,0,.17-6.47-5.57-18.1-5.77-11.62-13.99-20.01-14-20,.02-.01-7.74,17.37-2,29Z"/>
            <path class="cls-3" d="m82.78,57.57c4.89,11.94,19.72,14.62,19.71,14.63.02,0,3.24-13.53-1.68-25.45-4.96-11.9-16.1-17.66-16.11-17.65.02-.01-6.84,16.55-1.91,28.47Z"/>
            <path class="cls-3" d="m109.78,72.57c6.03,11.35,20.44,12.43,20.42,12.43.02,0,2.38-12.99-3.67-24.33-6.09-11.32-18.21-16.66-18.22-16.65.02-.01-4.58,17.22,1.47,28.55Z"/>
            <path class="cls-3" d="m135.78,80.57c5.57,11.57,20.47,17.03,20.45,17.03.02,0,3.29-11.98-2.31-23.53-5.63-11.54-17.93-18.24-17.95-18.23.02-.01-5.8,13.18-.2,24.73Z"/>
            <path class="cls-3" d="m162.78,93.57c5.62,11.56,20.05,13.68,20.03,13.68.02,0,3.5-11.17-2.16-22.72-5.69-11.53-18.28-19.04-18.3-19.03.02-.01-5.23,16.52.42,28.06Z"/>
          </g>
        </g>
        <g>
          <path class="cls-1" d="m284.04,89.67s-8.67-3.2-13.76-11.51c0,0-2.89,17.38,13.76,11.51Z"/>
          <path class="cls-1" d="m285.31,91.34s-3.45,7.83-3.59,19.71c0,0-12.75-9.21,3.59-19.71Z"/>
          <path class="cls-2" d="m224.57,107.85s21.59,3.23,73.09-23.46"/>
        </g>
      </g>
    </g>
  </g>
</svg>