<?xml version="1.0" encoding="UTF-8"?>
<svg id="_レイヤー_1" data-name="レイヤー 1" xmlns="http://www.w3.org/2000/svg" xmlns:xlink="http://www.w3.org/1999/xlink" viewBox="0 0 538 538">
  <defs>
    <style>
      .cls-1 {
        fill: #f7f5da;
      }

      .cls-1, .cls-2, .cls-3, .cls-4, .cls-5, .cls-6, .cls-7, .cls-8 {
        stroke-width: 0px;
      }

      .cls-2 {
        fill: #49723e;
      }

      .cls-3 {
        fill: #f7f5d9;
      }

      .cls-4 {
        fill: #4b713d;
      }

      .cls-5 {
        fill: none;
      }

      .cls-9 {
        clip-path: url(#clippath-1);
      }

      .cls-6 {
        fill: #fff;
      }

      .cls-10 {
        clip-path: url(#clippath);
      }

      .cls-7 {
        fill: #b09663;
      }

      .cls-8 {
        fill: #f7f2d2;
      }
    </style>
    <clipPath id="clippath">
      <path class="cls-5" d="m298.88,200.88v37h37v-37h-37Zm1.05,19.49c6.49,4.24,11.36,9.86,15.33,16.37-8.33-1.01-14.85-7.89-15.33-16.37Z"/>
    </clipPath>
    <clipPath id="clippath-1">
      <path class="cls-5" d="m195.75,202.75v37h37v-37h-37Zm21.5,35.72c3.71-7.01,8.16-12.95,14.42-17.42l.07.05s0,.09,0,.14c0,8.62-6.28,15.79-14.5,17.22Z"/>
    </clipPath>
  </defs>
  <g>
    <g>
      <g>
        <g>
          <path class="cls-2" d="m30.18,113.95c8,20.59,29.76,31.34,29.76,31.34,0,0,8.79-22.63.79-43.21-8-20.59-29.76-31.34-29.76-31.34,0,0-8.79,22.63-.79,43.21Z"/>
          <g>
            <g>
              <path class="cls-2" d="m69.36,145.66c-7.19,21.77,5.36,40.21,5.33,40.2.04.01,20.08-17.66,27.21-39.45,7.06-21.8-1.37-39.32-1.4-39.32.04,0-24.02,16.78-31.14,38.56Z"/>
              <path class="cls-2" d="m5.5,153.89s24.86-10.67,44.31-4.63c3.96,1.23,7.39,3.07,10.37,5.2-1.3,10.68,1.54,19.92,4.04,25.63-8.73,2.2-20.68,3.84-31.44.53-20.11-6.16-27.42-26.76-27.28-26.73Z"/>
              <path class="cls-2" d="m28.08,196s23.75-10.87,43.82-4.72c4.09,1.25,7.71,3.12,10.91,5.3-.18,10.87,3.61,20.24,6.71,26.02-8.5,2.23-20.28,3.89-31.39.54-20.74-6.22-30.2-27.15-30.05-27.14Z"/>
              <path class="cls-2" d="m44.97,239.68s22.6-10.98,43.32-4.77c4.22,1.27,8.04,3.16,11.47,5.35.96,10.97,5.74,20.39,9.43,26.2-8.27,2.24-19.87,3.91-31.33.54-21.39-6.24-33.04-27.33-32.9-27.33Z"/>
              <path class="cls-2" d="m71.56,282.2s21.49-11.01,42.84-4.78c4.35,1.27,8.36,3.16,12.01,5.36,2.06,10.99,7.79,20.39,12.07,26.18-8.04,2.23-19.48,3.89-31.28.54-22.02-6.2-35.79-27.3-35.65-27.3Z"/>
              <path class="cls-2" d="m100.99,324.41s20.39-10.95,42.36-4.75c4.48,1.26,8.67,3.14,12.55,5.33,3.17,10.92,9.83,20.22,14.7,25.95-7.82,2.21-19.09,3.85-31.22.53-22.64-6.12-38.53-27.05-38.39-27.06Z"/>
              <path class="cls-2" d="m134.79,365.79s19.3-10.8,41.89-4.68c4.6,1.25,8.99,3.1,13.08,5.26,4.26,10.76,11.86,19.91,17.3,25.52-7.59,2.17-18.7,3.77-31.17.52-23.26-5.99-41.24-26.59-41.1-26.62Z"/>
              <path class="cls-2" d="m188.89,411.14c-.1.02,12.28-16.14,34.43-16.3,4.49-.03,9.02.62,13.39,1.66,7.76,9.69,17.8,16.94,24.59,21.22-5.68,4.31-14.47,8.98-26.37,9.05-22.13.16-46.14-15.61-46.04-15.63Z"/>
              <path class="cls-2" d="m91.13,185.41c-5.02,22.19,9.33,40.81,9.3,40.8.04.01,18.36-17.84,23.32-40.03,4.9-22.2-5.34-40.21-5.36-40.2.04,0-22.3,17.24-27.25,39.44Z"/>
              <path class="cls-2" d="m115.09,226.95c-2.79,22.44,13.41,41.12,13.38,41.11.04,0,16.59-17.89,19.32-40.34,2.66-22.45-9.42-40.82-9.45-40.82.04,0-20.53,17.59-23.25,40.04Z"/>
              <path class="cls-2" d="m143.21,268.82c-.55,22.53,17.49,41.12,17.46,41.11.04,0,14.82-17.81,15.31-40.34.43-22.53-13.5-41.12-13.53-41.12.04,0-18.76,17.81-19.24,40.34Z"/>
              <path class="cls-2" d="m177.45,314.55c1.89,22.43,21.95,40.77,21.92,40.76.04,0,12.88-17.56,10.94-39.99-2.01-22.42-17.96-41.1-17.99-41.09.04,0-16.82,17.89-14.87,40.32Z"/>
              <path class="cls-2" d="m214.19,354.65c4.04,22.18,25.89,40.15,25.86,40.14.04,0,11.17-17.21,7.07-39.38-4.17-22.16-21.9-40.77-21.93-40.76.04-.01-15.11,17.83-11,40Z"/>
            </g>
            <g>
              <path class="cls-2" d="m69.36,145.66c-7.19,21.77,5.36,40.21,5.33,40.2.04.01,20.08-17.66,27.21-39.45,7.06-21.8-1.37-39.32-1.4-39.32.04,0-24.02,16.78-31.14,38.56Z"/>
              <path class="cls-2" d="m5.5,153.89s24.86-10.67,44.31-4.63c3.96,1.23,7.39,3.07,10.37,5.2-1.3,10.68,1.54,19.92,4.04,25.63-8.73,2.2-20.68,3.84-31.44.53-20.11-6.16-27.42-26.76-27.28-26.73Z"/>
              <path class="cls-2" d="m28.08,196s23.75-10.87,43.82-4.72c4.09,1.25,7.71,3.12,10.91,5.3-.18,10.87,3.61,20.24,6.71,26.02-8.5,2.23-20.28,3.89-31.39.54-20.74-6.22-30.2-27.15-30.05-27.14Z"/>
              <path class="cls-2" d="m44.97,239.68s22.6-10.98,43.32-4.77c4.22,1.27,8.04,3.16,11.47,5.35.96,10.97,5.74,20.39,9.43,26.2-8.27,2.24-19.87,3.91-31.33.54-21.39-6.24-33.04-27.33-32.9-27.33Z"/>
              <path class="cls-2" d="m71.56,282.2s21.49-11.01,42.84-4.78c4.35,1.27,8.36,3.16,12.01,5.36,2.06,10.99,7.79,20.39,12.07,26.18-8.04,2.23-19.48,3.89-31.28.54-22.02-6.2-35.79-27.3-35.65-27.3Z"/>
              <path class="cls-2" d="m100.99,324.41s20.39-10.95,42.36-4.75c4.48,1.26,8.67,3.14,12.55,5.33,3.17,10.92,9.83,20.22,14.7,25.95-7.82,2.21-19.09,3.85-31.22.53-22.64-6.12-38.53-27.05-38.39-27.06Z"/>
              <path class="cls-2" d="m134.79,365.79s19.3-10.8,41.89-4.68c4.6,1.25,8.99,3.1,13.08,5.26,4.26,10.76,11.86,19.91,17.3,25.52-7.59,2.17-18.7,3.77-31.17.52-23.26-5.99-41.24-26.59-41.1-26.62Z"/>
              <path class="cls-2" d="m188.89,411.14c-.1.02,12.28-16.14,34.43-16.3,4.49-.03,9.02.62,13.39,1.66,7.76,9.69,17.8,16.94,24.59,21.22-5.68,4.31-14.47,8.98-26.37,9.05-22.13.16-46.14-15.61-46.04-15.63Z"/>
              <path class="cls-2" d="m91.13,185.41c-5.02,22.19,9.33,40.81,9.3,40.8.04.01,18.36-17.84,23.32-40.03,4.9-22.2-5.34-40.21-5.36-40.2.04,0-22.3,17.24-27.25,39.44Z"/>
              <path class="cls-2" d="m115.09,226.95c-2.79,22.44,13.41,41.12,13.38,41.11.04,0,16.59-17.89,19.32-40.34,2.66-22.45-9.42-40.82-9.45-40.82.04,0-20.53,17.59-23.25,40.04Z"/>
              <path class="cls-2" d="m143.21,268.82c-.55,22.53,17.49,41.12,17.46,41.11.04,0,14.82-17.81,15.31-40.34.43-22.53-13.5-41.12-13.53-41.12.04,0-18.76,17.81-19.24,40.34Z"/>
              <path class="cls-2" d="m177.45,314.55c1.89,22.43,21.95,40.77,21.92,40.76.04,0,12.88-17.56,10.94-39.99-2.01-22.42-17.96-41.1-17.99-41.09.04,0-16.82,17.89-14.87,40.32Z"/>
              <path class="cls-2" d="m214.19,354.65c4.04,22.18,25.89,40.15,25.86,40.14.04,0,11.17-17.21,7.07-39.38-4.17-22.16-21.9-40.77-21.93-40.76.04-.01-15.11,17.83-11,40Z"/>
            </g>
            <g>
              <path class="cls-2" d="m69.36,145.66c-7.19,21.77,5.36,40.21,5.33,40.2.04.01,20.08-17.66,27.21-39.45,7.06-21.8-1.37-39.32-1.4-39.32.04,0-24.02,16.78-31.14,38.56Z"/>
              <path class="cls-2" d="m5.5,153.89s24.86-10.67,44.31-4.63c3.96,1.23,7.39,3.07,10.37,5.2-1.3,10.68,1.54,19.92,4.04,25.63-8.73,2.2-20.68,3.84-31.44.53-20.11-6.16-27.42-26.76-27.28-26.73Z"/>
              <path class="cls-2" d="m28.08,196s23.75-10.87,43.82-4.72c4.09,1.25,7.71,3.12,10.91,5.3-.18,10.87,3.61,20.24,6.71,26.02-8.5,2.23-20.28,3.89-31.39.54-20.74-6.22-30.2-27.15-30.05-27.14Z"/>
              <path class="cls-2" d="m44.97,239.68s22.6-10.98,43.32-4.77c4.22,1.27,8.04,3.16,11.47,5.35.96,10.97,5.74,20.39,9.43,26.2-8.27,2.24-19.87,3.91-31.33.54-21.39-6.24-33.04-27.33-32.9-27.33Z"/>
              <path class="cls-2" d="m71.56,282.2s21.49-11.01,42.84-4.78c4.35,1.27,8.36,3.16,12.01,5.36,2.06,10.99,7.79,20.39,12.07,26.18-8.04,2.23-19.48,3.89-31.28.54-22.02-6.2-35.79-27.3-35.65-27.3Z"/>
              <path class="cls-2" d="m100.99,324.41s20.39-10.95,42.36-4.75c4.48,1.26,8.67,3.14,12.55,5.33,3.17,10.92,9.83,20.22,14.7,25.95-7.82,2.21-19.09,3.85-31.22.53-22.64-6.12-38.53-27.05-38.39-27.06Z"/>
              <path class="cls-2" d="m134.79,365.79s19.3-10.8,41.89-4.68c4.6,1.25,8.99,3.1,13.08,5.26,4.26,10.76,11.86,19.91,17.3,25.52-7.59,2.17-18.7,3.77-31.17.52-23.26-5.99-41.24-26.59-41.1-26.62Z"/>
              <path class="cls-2" d="m188.89,411.14c-.1.02,12.28-16.14,34.43-16.3,4.49-.03,9.02.62,13.39,1.66,7.76,9.69,17.8,16.94,24.59,21.22-5.68,4.31-14.47,8.98-26.37,9.05-22.13.16-46.14-15.61-46.04-15.63Z"/>
              <path class="cls-2" d="m91.13,185.41c-5.02,22.19,9.33,40.81,9.3,40.8.04.01,18.36-17.84,23.32-40.03,4.9-22.2-5.34-40.21-5.36-40.2.04,0-22.3,17.24-27.25,39.44Z"/>
              <path class="cls-2" d="m115.09,226.95c-2.79,22.44,13.41,41.12,13.38,41.11.04,0,16.59-17.89,19.32-40.34,2.66-22.45-9.42-40.82-9.45-40.82.04,0-20.53,17.59-23.25,40.04Z"/>
              <path class="cls-2" d="m143.21,268.82c-.55,22.53,17.49,41.12,17.46,41.11.04,0,14.82-17.81,15.31-40.34.43-22.53-13.5-41.12-13.53-41.12.04,0-18.76,17.81-19.24,40.34Z"/>
              <path class="cls-2" d="m177.45,314.55c1.89,22.43,21.95,40.77,21.92,40.76.04,0,12.88-17.56,10.94-39.99-2.01-22.42-17.96-41.1-17.99-41.09.04,0-16.82,17.89-14.87,40.32Z"/>
              <path class="cls-2" d="m214.19,354.65c4.04,22.18,25.89,40.15,25.86,40.14.04,0,11.17-17.21,7.07-39.38-4.17-22.16-21.9-40.77-21.93-40.76.04-.01-15.11,17.83-11,40Z"/>
            </g>
          </g>
        </g>
        <g>
          <path class="cls-2" d="m30.18,113.95c8,20.59,29.76,31.34,29.76,31.34,0,0,8.79-22.63.79-43.21-8-20.59-29.76-31.34-29.76-31.34,0,0-8.79,22.63-.79,43.21Z"/>
          <g>
            <g>
              <path class="cls-2" d="m69.36,145.66c-7.19,21.77,5.36,40.21,5.33,40.2.04.01,20.08-17.66,27.21-39.45,7.06-21.8-1.37-39.32-1.4-39.32.04,0-24.02,16.78-31.14,38.56Z"/>
              <path class="cls-2" d="m5.5,153.89s24.86-10.67,44.31-4.63c3.96,1.23,7.39,3.07,10.37,5.2-1.3,10.68,1.54,19.92,4.04,25.63-8.73,2.2-20.68,3.84-31.44.53-20.11-6.16-27.42-26.76-27.28-26.73Z"/>
              <path class="cls-2" d="m28.08,196s23.75-10.87,43.82-4.72c4.09,1.25,7.71,3.12,10.91,5.3-.18,10.87,3.61,20.24,6.71,26.02-8.5,2.23-20.28,3.89-31.39.54-20.74-6.22-30.2-27.15-30.05-27.14Z"/>
              <path class="cls-2" d="m44.97,239.68s22.6-10.98,43.32-4.77c4.22,1.27,8.04,3.16,11.47,5.35.96,10.97,5.74,20.39,9.43,26.2-8.27,2.24-19.87,3.91-31.33.54-21.39-6.24-33.04-27.33-32.9-27.33Z"/>
              <path class="cls-2" d="m71.56,282.2s21.49-11.01,42.84-4.78c4.35,1.27,8.36,3.16,12.01,5.36,2.06,10.99,7.79,20.39,12.07,26.18-8.04,2.23-19.48,3.89-31.28.54-22.02-6.2-35.79-27.3-35.65-27.3Z"/>
              <path class="cls-2" d="m100.99,324.41s20.39-10.95,42.36-4.75c4.48,1.26,8.67,3.14,12.55,5.33,3.17,10.92,9.83,20.22,14.7,25.95-7.82,2.21-19.09,3.85-31.22.53-22.64-6.12-38.53-27.05-38.39-27.06Z"/>
              <path class="cls-2" d="m134.79,365.79s19.3-10.8,41.89-4.68c4.6,1.25,8.99,3.1,13.08,5.26,4.26,10.76,11.86,19.91,17.3,25.52-7.59,2.17-18.7,3.77-31.17.52-23.26-5.99-41.24-26.59-41.1-26.62Z"/>
              <path class="cls-2" d="m188.89,411.14c-.1.02,12.28-16.14,34.43-16.3,4.49-.03,9.02.62,13.39,1.66,7.76,9.69,17.8,16.94,24.59,21.22-5.68,4.31-14.47,8.98-26.37,9.05-22.13.16-46.14-15.61-46.04-15.63Z"/>
              <path class="cls-2" d="m91.13,185.41c-5.02,22.19,9.33,40.81,9.3,40.8.04.01,18.36-17.84,23.32-40.03,4.9-22.2-5.34-40.21-5.36-40.2.04,0-22.3,17.24-27.25,39.44Z"/>
              <path class="cls-2" d="m115.09,226.95c-2.79,22.44,13.41,41.12,13.38,41.11.04,0,16.59-17.89,19.32-40.34,2.66-22.45-9.42-40.82-9.45-40.82.04,0-20.53,17.59-23.25,40.04Z"/>
              <path class="cls-2" d="m143.21,268.82c-.55,22.53,17.49,41.12,17.46,41.11.04,0,14.82-17.81,15.31-40.34.43-22.53-13.5-41.12-13.53-41.12.04,0-18.76,17.81-19.24,40.34Z"/>
              <path class="cls-2" d="m177.45,314.55c1.89,22.43,21.95,40.77,21.92,40.76.04,0,12.88-17.56,10.94-39.99-2.01-22.42-17.96-41.1-17.99-41.09.04,0-16.82,17.89-14.87,40.32Z"/>
              <path class="cls-2" d="m214.19,354.65c4.04,22.18,25.89,40.15,25.86,40.14.04,0,11.17-17.21,7.07-39.38-4.17-22.16-21.9-40.77-21.93-40.76.04-.01-15.11,17.83-11,40Z"/>
            </g>
            <g>
              <path class="cls-2" d="m69.36,145.66c-7.19,21.77,5.36,40.21,5.33,40.2.04.01,20.08-17.66,27.21-39.45,7.06-21.8-1.37-39.32-1.4-39.32.04,0-24.02,16.78-31.14,38.56Z"/>
              <path class="cls-2" d="m5.5,153.89s24.86-10.67,44.31-4.63c3.96,1.23,7.39,3.07,10.37,5.2-1.3,10.68,1.54,19.92,4.04,25.63-8.73,2.2-20.68,3.84-31.44.53-20.11-6.16-27.42-26.76-27.28-26.73Z"/>
              <path class="cls-2" d="m28.08,196s23.75-10.87,43.82-4.72c4.09,1.25,7.71,3.12,10.91,5.3-.18,10.87,3.61,20.24,6.71,26.02-8.5,2.23-20.28,3.89-31.39.54-20.74-6.22-30.2-27.15-30.05-27.14Z"/>
              <path class="cls-2" d="m44.97,239.68s22.6-10.98,43.32-4.77c4.22,1.27,8.04,3.16,11.47,5.35.96,10.97,5.74,20.39,9.43,26.2-8.27,2.24-19.87,3.91-31.33.54-21.39-6.24-33.04-27.33-32.9-27.33Z"/>
              <path class="cls-2" d="m71.56,282.2s21.49-11.01,42.84-4.78c4.35,1.27,8.36,3.16,12.01,5.36,2.06,10.99,7.79,20.39,12.07,26.18-8.04,2.23-19.48,3.89-31.28.54-22.02-6.2-35.79-27.3-35.65-27.3Z"/>
              <path class="cls-2" d="m100.99,324.41s20.39-10.95,42.36-4.75c4.48,1.26,8.67,3.14,12.55,5.33,3.17,10.92,9.83,20.22,14.7,25.95-7.82,2.21-19.09,3.85-31.22.53-22.64-6.12-38.53-27.05-38.39-27.06Z"/>
              <path class="cls-2" d="m134.79,365.79s19.3-10.8,41.89-4.68c4.6,1.25,8.99,3.1,13.08,5.26,4.26,10.76,11.86,19.91,17.3,25.52-7.59,2.17-18.7,3.77-31.17.52-23.26-5.99-41.24-26.59-41.1-26.62Z"/>
              <path class="cls-2" d="m188.89,411.14c-.1.02,12.28-16.14,34.43-16.3,4.49-.03,9.02.62,13.39,1.66,7.76,9.69,17.8,16.94,24.59,21.22-5.68,4.31-14.47,8.98-26.37,9.05-22.13.16-46.14-15.61-46.04-15.63Z"/>
              <path class="cls-2" d="m91.13,185.41c-5.02,22.19,9.33,40.81,9.3,40.8.04.01,18.36-17.84,23.32-40.03,4.9-22.2-5.34-40.21-5.36-40.2.04,0-22.3,17.24-27.25,39.44Z"/>
              <path class="cls-2" d="m115.09,226.95c-2.79,22.44,13.41,41.12,13.38,41.11.04,0,16.59-17.89,19.32-40.34,2.66-22.45-9.42-40.82-9.45-40.82.04,0-20.53,17.59-23.25,40.04Z"/>
              <path class="cls-2" d="m143.21,268.82c-.55,22.53,17.49,41.12,17.46,41.11.04,0,14.82-17.81,15.31-40.34.43-22.53-13.5-41.12-13.53-41.12.04,0-18.76,17.81-19.24,40.34Z"/>
              <path class="cls-2" d="m177.45,314.55c1.89,22.43,21.95,40.77,21.92,40.76.04,0,12.88-17.56,10.94-39.99-2.01-22.42-17.96-41.1-17.99-41.09.04,0-16.82,17.89-14.87,40.32Z"/>
              <path class="cls-2" d="m214.19,354.65c4.04,22.18,25.89,40.15,25.86,40.14.04,0,11.17-17.21,7.07-39.38-4.17-22.16-21.9-40.77-21.93-40.76.04-.01-15.11,17.83-11,40Z"/>
            </g>
            <g>
              <path class="cls-2" d="m69.36,145.66c-7.19,21.77,5.36,40.21,5.33,40.2.04.01,20.08-17.66,27.21-39.45,7.06-21.8-1.37-39.32-1.4-39.32.04,0-24.02,16.78-31.14,38.56Z"/>
              <path class="cls-2" d="m5.5,153.89s24.86-10.67,44.31-4.63c3.96,1.23,7.39,3.07,10.37,5.2-1.3,10.68,1.54,19.92,4.04,25.63-8.73,2.2-20.68,3.84-31.44.53-20.11-6.16-27.42-26.76-27.28-26.73Z"/>
              <path class="cls-2" d="m28.08,196s23.75-10.87,43.82-4.72c4.09,1.25,7.71,3.12,10.91,5.3-.18,10.87,3.61,20.24,6.71,26.02-8.5,2.23-20.28,3.89-31.39.54-20.74-6.22-30.2-27.15-30.05-27.14Z"/>
              <path class="cls-2" d="m44.97,239.68s22.6-10.98,43.32-4.77c4.22,1.27,8.04,3.16,11.47,5.35.96,10.97,5.74,20.39,9.43,26.2-8.27,2.24-19.87,3.91-31.33.54-21.39-6.24-33.04-27.33-32.9-27.33Z"/>
              <path class="cls-2" d="m71.56,282.2s21.49-11.01,42.84-4.78c4.35,1.27,8.36,3.16,12.01,5.36,2.06,10.99,7.79,20.39,12.07,26.18-8.04,2.23-19.48,3.89-31.28.54-22.02-6.2-35.79-27.3-35.65-27.3Z"/>
              <path class="cls-2" d="m100.99,324.41s20.39-10.95,42.36-4.75c4.48,1.26,8.67,3.14,12.55,5.33,3.17,10.92,9.83,20.22,14.7,25.95-7.82,2.21-19.09,3.85-31.22.53-22.64-6.12-38.53-27.05-38.39-27.06Z"/>
              <path class="cls-2" d="m134.79,365.79s19.3-10.8,41.89-4.68c4.6,1.25,8.99,3.1,13.08,5.26,4.26,10.76,11.86,19.91,17.3,25.52-7.59,2.17-18.7,3.77-31.17.52-23.26-5.99-41.24-26.59-41.1-26.62Z"/>
              <path class="cls-2" d="m188.89,411.14c-.1.02,12.28-16.14,34.43-16.3,4.49-.03,9.02.62,13.39,1.66,7.76,9.69,17.8,16.94,24.59,21.22-5.68,4.31-14.47,8.98-26.37,9.05-22.13.16-46.14-15.61-46.04-15.63Z"/>
              <path class="cls-2" d="m91.13,185.41c-5.02,22.19,9.33,40.81,9.3,40.8.04.01,18.36-17.84,23.32-40.03,4.9-22.2-5.34-40.21-5.36-40.2.04,0-22.3,17.24-27.25,39.44Z"/>
              <path class="cls-2" d="m115.09,226.95c-2.79,22.44,13.41,41.12,13.38,41.11.04,0,16.59-17.89,19.32-40.34,2.66-22.45-9.42-40.82-9.45-40.82.04,0-20.53,17.59-23.25,40.04Z"/>
              <path class="cls-2" d="m143.21,268.82c-.55,22.53,17.49,41.12,17.46,41.11.04,0,14.82-17.81,15.31-40.34.43-22.53-13.5-41.12-13.53-41.12.04,0-18.76,17.81-19.24,40.34Z"/>
              <path class="cls-2" d="m177.45,314.55c1.89,22.43,21.95,40.77,21.92,40.76.04,0,12.88-17.56,10.94-39.99-2.01-22.42-17.96-41.1-17.99-41.09.04,0-16.82,17.89-14.87,40.32Z"/>
              <path class="cls-2" d="m214.19,354.65c4.04,22.18,25.89,40.15,25.86,40.14.04,0,11.17-17.21,7.07-39.38-4.17-22.16-21.9-40.77-21.93-40.76.04-.01-15.11,17.83-11,40Z"/>
            </g>
          </g>
        </g>
        <g>
          <path class="cls-2" d="m30.18,113.95c8,20.59,29.76,31.34,29.76,31.34,0,0,8.79-22.63.79-43.21-8-20.59-29.76-31.34-29.76-31.34,0,0-8.79,22.63-.79,43.21Z"/>
          <g>
            <g>
              <path class="cls-2" d="m69.36,145.66c-7.19,21.77,5.36,40.21,5.33,40.2.04.01,20.08-17.66,27.21-39.45,7.06-21.8-1.37-39.32-1.4-39.32.04,0-24.02,16.78-31.14,38.56Z"/>
              <path class="cls-2" d="m5.5,153.89s24.86-10.67,44.31-4.63c3.96,1.23,7.39,3.07,10.37,5.2-1.3,10.68,1.54,19.92,4.04,25.63-8.73,2.2-20.68,3.84-31.44.53-20.11-6.16-27.42-26.76-27.28-26.73Z"/>
              <path class="cls-2" d="m28.08,196s23.75-10.87,43.82-4.72c4.09,1.25,7.71,3.12,10.91,5.3-.18,10.87,3.61,20.24,6.71,26.02-8.5,2.23-20.28,3.89-31.39.54-20.74-6.22-30.2-27.15-30.05-27.14Z"/>
              <path class="cls-2" d="m44.97,239.68s22.6-10.98,43.32-4.77c4.22,1.27,8.04,3.16,11.47,5.35.96,10.97,5.74,20.39,9.43,26.2-8.27,2.24-19.87,3.91-31.33.54-21.39-6.24-33.04-27.33-32.9-27.33Z"/>
              <path class="cls-2" d="m71.56,282.2s21.49-11.01,42.84-4.78c4.35,1.27,8.36,3.16,12.01,5.36,2.06,10.99,7.79,20.39,12.07,26.18-8.04,2.23-19.48,3.89-31.28.54-22.02-6.2-35.79-27.3-35.65-27.3Z"/>
              <path class="cls-2" d="m100.99,324.41s20.39-10.95,42.36-4.75c4.48,1.26,8.67,3.14,12.55,5.33,3.17,10.92,9.83,20.22,14.7,25.95-7.82,2.21-19.09,3.85-31.22.53-22.64-6.12-38.53-27.05-38.39-27.06Z"/>
              <path class="cls-2" d="m134.79,365.79s19.3-10.8,41.89-4.68c4.6,1.25,8.99,3.1,13.08,5.26,4.26,10.76,11.86,19.91,17.3,25.52-7.59,2.17-18.7,3.77-31.17.52-23.26-5.99-41.24-26.59-41.1-26.62Z"/>
              <path class="cls-2" d="m188.89,411.14c-.1.02,12.28-16.14,34.43-16.3,4.49-.03,9.02.62,13.39,1.66,7.76,9.69,17.8,16.94,24.59,21.22-5.68,4.31-14.47,8.98-26.37,9.05-22.13.16-46.14-15.61-46.04-15.63Z"/>
              <path class="cls-2" d="m91.13,185.41c-5.02,22.19,9.33,40.81,9.3,40.8.04.01,18.36-17.84,23.32-40.03,4.9-22.2-5.34-40.21-5.36-40.2.04,0-22.3,17.24-27.25,39.44Z"/>
              <path class="cls-2" d="m115.09,226.95c-2.79,22.44,13.41,41.12,13.38,41.11.04,0,16.59-17.89,19.32-40.34,2.66-22.45-9.42-40.82-9.45-40.82.04,0-20.53,17.59-23.25,40.04Z"/>
              <path class="cls-2" d="m143.21,268.82c-.55,22.53,17.49,41.12,17.46,41.11.04,0,14.82-17.81,15.31-40.34.43-22.53-13.5-41.12-13.53-41.12.04,0-18.76,17.81-19.24,40.34Z"/>
              <path class="cls-2" d="m177.45,314.55c1.89,22.43,21.95,40.77,21.92,40.76.04,0,12.88-17.56,10.94-39.99-2.01-22.42-17.96-41.1-17.99-41.09.04,0-16.82,17.89-14.87,40.32Z"/>
              <path class="cls-2" d="m214.19,354.65c4.04,22.18,25.89,40.15,25.86,40.14.04,0,11.17-17.21,7.07-39.38-4.17-22.16-21.9-40.77-21.93-40.76.04-.01-15.11,17.83-11,40Z"/>
            </g>
            <g>
              <path class="cls-2" d="m69.36,145.66c-7.19,21.77,5.36,40.21,5.33,40.2.04.01,20.08-17.66,27.21-39.45,7.06-21.8-1.37-39.32-1.4-39.32.04,0-24.02,16.78-31.14,38.56Z"/>
              <path class="cls-2" d="m5.5,153.89s24.86-10.67,44.31-4.63c3.96,1.23,7.39,3.07,10.37,5.2-1.3,10.68,1.54,19.92,4.04,25.63-8.73,2.2-20.68,3.84-31.44.53-20.11-6.16-27.42-26.76-27.28-26.73Z"/>
              <path class="cls-2" d="m28.08,196s23.75-10.87,43.82-4.72c4.09,1.25,7.71,3.12,10.91,5.3-.18,10.87,3.61,20.24,6.71,26.02-8.5,2.23-20.28,3.89-31.39.54-20.74-6.22-30.2-27.15-30.05-27.14Z"/>
              <path class="cls-2" d="m44.97,239.68s22.6-10.98,43.32-4.77c4.22,1.27,8.04,3.16,11.47,5.35.96,10.97,5.74,20.39,9.43,26.2-8.27,2.24-19.87,3.91-31.33.54-21.39-6.24-33.04-27.33-32.9-27.33Z"/>
              <path class="cls-2" d="m71.56,282.2s21.49-11.01,42.84-4.78c4.35,1.27,8.36,3.16,12.01,5.36,2.06,10.99,7.79,20.39,12.07,26.18-8.04,2.23-19.48,3.89-31.28.54-22.02-6.2-35.79-27.3-35.65-27.3Z"/>
              <path class="cls-2" d="m100.99,324.41s20.39-10.95,42.36-4.75c4.48,1.26,8.67,3.14,12.55,5.33,3.17,10.92,9.83,20.22,14.7,25.95-7.82,2.21-19.09,3.85-31.22.53-22.64-6.12-38.53-27.05-38.39-27.06Z"/>
              <path class="cls-2" d="m134.79,365.79s19.3-10.8,41.89-4.68c4.6,1.25,8.99,3.1,13.08,5.26,4.26,10.76,11.86,19.91,17.3,25.52-7.59,2.17-18.7,3.77-31.17.52-23.26-5.99-41.24-26.59-41.1-26.62Z"/>
              <path class="cls-2" d="m188.89,411.14c-.1.02,12.28-16.14,34.43-16.3,4.49-.03,9.02.62,13.39,1.66,7.76,9.69,17.8,16.94,24.59,21.22-5.68,4.31-14.47,8.98-26.37,9.05-22.13.16-46.14-15.61-46.04-15.63Z"/>
              <path class="cls-2" d="m91.13,185.41c-5.02,22.19,9.33,40.81,9.3,40.8.04.01,18.36-17.84,23.32-40.03,4.9-22.2-5.34-40.21-5.36-40.2.04,0-22.3,17.24-27.25,39.44Z"/>
              <path class="cls-2" d="m115.09,226.95c-2.79,22.44,13.41,41.12,13.38,41.11.04,0,16.59-17.89,19.32-40.34,2.66-22.45-9.42-40.82-9.45-40.82.04,0-20.53,17.59-23.25,40.04Z"/>
              <path class="cls-2" d="m143.21,268.82c-.55,22.53,17.49,41.12,17.46,41.11.04,0,14.82-17.81,15.31-40.34.43-22.53-13.5-41.12-13.53-41.12.04,0-18.76,17.81-19.24,40.34Z"/>
              <path class="cls-2" d="m177.45,314.55c1.89,22.43,21.95,40.77,21.92,40.76.04,0,12.88-17.56,10.94-39.99-2.01-22.42-17.96-41.1-17.99-41.09.04,0-16.82,17.89-14.87,40.32Z"/>
              <path class="cls-2" d="m214.19,354.65c4.04,22.18,25.89,40.15,25.86,40.14.04,0,11.17-17.21,7.07-39.38-4.17-22.16-21.9-40.77-21.93-40.76.04-.01-15.11,17.83-11,40Z"/>
            </g>
            <g>
              <path class="cls-2" d="m69.36,145.66c-7.19,21.77,5.36,40.21,5.33,40.2.04.01,20.08-17.66,27.21-39.45,7.06-21.8-1.37-39.32-1.4-39.32.04,0-24.02,16.78-31.14,38.56Z"/>
              <path class="cls-2" d="m5.5,153.89s24.86-10.67,44.31-4.63c3.96,1.23,7.39,3.07,10.37,5.2-1.3,10.68,1.54,19.92,4.04,25.63-8.73,2.2-20.68,3.84-31.44.53-20.11-6.16-27.42-26.76-27.28-26.73Z"/>
              <path class="cls-2" d="m28.08,196s23.75-10.87,43.82-4.72c4.09,1.25,7.71,3.12,10.91,5.3-.18,10.87,3.61,20.24,6.71,26.02-8.5,2.23-20.28,3.89-31.39.54-20.74-6.22-30.2-27.15-30.05-27.14Z"/>
              <path class="cls-2" d="m44.97,239.68s22.6-10.98,43.32-4.77c4.22,1.27,8.04,3.16,11.47,5.35.96,10.97,5.74,20.39,9.43,26.2-8.27,2.24-19.87,3.91-31.33.54-21.39-6.24-33.04-27.33-32.9-27.33Z"/>
              <path class="cls-2" d="m71.56,282.2s21.49-11.01,42.84-4.78c4.35,1.27,8.36,3.16,12.01,5.36,2.06,10.99,7.79,20.39,12.07,26.18-8.04,2.23-19.48,3.89-31.28.54-22.02-6.2-35.79-27.3-35.65-27.3Z"/>
              <path class="cls-2" d="m100.99,324.41s20.39-10.95,42.36-4.75c4.48,1.26,8.67,3.14,12.55,5.33,3.17,10.92,9.83,20.22,14.7,25.95-7.82,2.21-19.09,3.85-31.22.53-22.64-6.12-38.53-27.05-38.39-27.06Z"/>
              <path class="cls-2" d="m134.79,365.79s19.3-10.8,41.89-4.68c4.6,1.25,8.99,3.1,13.08,5.26,4.26,10.76,11.86,19.91,17.3,25.52-7.59,2.17-18.7,3.77-31.17.52-23.26-5.99-41.24-26.59-41.1-26.62Z"/>
              <path class="cls-2" d="m188.89,411.14c-.1.02,12.28-16.14,34.43-16.3,4.49-.03,9.02.62,13.39,1.66,7.76,9.69,17.8,16.94,24.59,21.22-5.68,4.31-14.47,8.98-26.37,9.05-22.13.16-46.14-15.61-46.04-15.63Z"/>
              <path class="cls-2" d="m91.13,185.41c-5.02,22.19,9.33,40.81,9.3,40.8.04.01,18.36-17.84,23.32-40.03,4.9-22.2-5.34-40.21-5.36-40.2.04,0-22.3,17.24-27.25,39.44Z"/>
              <path class="cls-2" d="m115.09,226.95c-2.79,22.44,13.41,41.12,13.38,41.11.04,0,16.59-17.89,19.32-40.34,2.66-22.45-9.42-40.82-9.45-40.82.04,0-20.53,17.59-23.25,40.04Z"/>
              <path class="cls-2" d="m143.21,268.82c-.55,22.53,17.49,41.12,17.46,41.11.04,0,14.82-17.81,15.31-40.34.43-22.53-13.5-41.12-13.53-41.12.04,0-18.76,17.81-19.24,40.34Z"/>
              <path class="cls-2" d="m177.45,314.55c1.89,22.43,21.95,40.77,21.92,40.76.04,0,12.88-17.56,10.94-39.99-2.01-22.42-17.96-41.1-17.99-41.09.04,0-16.82,17.89-14.87,40.32Z"/>
              <path class="cls-2" d="m214.19,354.65c4.04,22.18,25.89,40.15,25.86,40.14.04,0,11.17-17.21,7.07-39.38-4.17-22.16-21.9-40.77-21.93-40.76.04-.01-15.11,17.83-11,40Z"/>
            </g>
          </g>
        </g>
      </g>
      <g>
        <g>
          <path class="cls-2" d="m30.18,113.95c8,20.59,29.76,31.34,29.76,31.34,0,0,8.79-22.63.79-43.21-8-20.59-29.76-31.34-29.76-31.34,0,0-8.79,22.63-.79,43.21Z"/>
          <g>
            <g>
              <path class="cls-2" d="m69.36,145.66c-7.19,21.77,5.36,40.21,5.33,40.2.04.01,20.08-17.66,27.21-39.45,7.06-21.8-1.37-39.32-1.4-39.32.04,0-24.02,16.78-31.14,38.56Z"/>
              <path class="cls-2" d="m5.5,153.89s24.86-10.67,44.31-4.63c3.96,1.23,7.39,3.07,10.37,5.2-1.3,10.68,1.54,19.92,4.04,25.63-8.73,2.2-20.68,3.84-31.44.53-20.11-6.16-27.42-26.76-27.28-26.73Z"/>
              <path class="cls-2" d="m28.08,196s23.75-10.87,43.82-4.72c4.09,1.25,7.71,3.12,10.91,5.3-.18,10.87,3.61,20.24,6.71,26.02-8.5,2.23-20.28,3.89-31.39.54-20.74-6.22-30.2-27.15-30.05-27.14Z"/>
              <path class="cls-2" d="m44.97,239.68s22.6-10.98,43.32-4.77c4.22,1.27,8.04,3.16,11.47,5.35.96,10.97,5.74,20.39,9.43,26.2-8.27,2.24-19.87,3.91-31.33.54-21.39-6.24-33.04-27.33-32.9-27.33Z"/>
              <path class="cls-2" d="m71.56,282.2s21.49-11.01,42.84-4.78c4.35,1.27,8.36,3.16,12.01,5.36,2.06,10.99,7.79,20.39,12.07,26.18-8.04,2.23-19.48,3.89-31.28.54-22.02-6.2-35.79-27.3-35.65-27.3Z"/>
              <path class="cls-2" d="m100.99,324.41s20.39-10.95,42.36-4.75c4.48,1.26,8.67,3.14,12.55,5.33,3.17,10.92,9.83,20.22,14.7,25.95-7.82,2.21-19.09,3.85-31.22.53-22.64-6.12-38.53-27.05-38.39-27.06Z"/>
              <path class="cls-2" d="m134.79,365.79s19.3-10.8,41.89-4.68c4.6,1.25,8.99,3.1,13.08,5.26,4.26,10.76,11.86,19.91,17.3,25.52-7.59,2.17-18.7,3.77-31.17.52-23.26-5.99-41.24-26.59-41.1-26.62Z"/>
              <path class="cls-2" d="m188.89,411.14c-.1.02,12.28-16.14,34.43-16.3,4.49-.03,9.02.62,13.39,1.66,7.76,9.69,17.8,16.94,24.59,21.22-5.68,4.31-14.47,8.98-26.37,9.05-22.13.16-46.14-15.61-46.04-15.63Z"/>
              <path class="cls-2" d="m91.13,185.41c-5.02,22.19,9.33,40.81,9.3,40.8.04.01,18.36-17.84,23.32-40.03,4.9-22.2-5.34-40.21-5.36-40.2.04,0-22.3,17.24-27.25,39.44Z"/>
              <path class="cls-2" d="m115.09,226.95c-2.79,22.44,13.41,41.12,13.38,41.11.04,0,16.59-17.89,19.32-40.34,2.66-22.45-9.42-40.82-9.45-40.82.04,0-20.53,17.59-23.25,40.04Z"/>
              <path class="cls-2" d="m143.21,268.82c-.55,22.53,17.49,41.12,17.46,41.11.04,0,14.82-17.81,15.31-40.34.43-22.53-13.5-41.12-13.53-41.12.04,0-18.76,17.81-19.24,40.34Z"/>
              <path class="cls-2" d="m177.45,314.55c1.89,22.43,21.95,40.77,21.92,40.76.04,0,12.88-17.56,10.94-39.99-2.01-22.42-17.96-41.1-17.99-41.09.04,0-16.82,17.89-14.87,40.32Z"/>
              <path class="cls-2" d="m214.19,354.65c4.04,22.18,25.89,40.15,25.86,40.14.04,0,11.17-17.21,7.07-39.38-4.17-22.16-21.9-40.77-21.93-40.76.04-.01-15.11,17.83-11,40Z"/>
            </g>
            <g>
              <path class="cls-2" d="m69.36,145.66c-7.19,21.77,5.36,40.21,5.33,40.2.04.01,20.08-17.66,27.21-39.45,7.06-21.8-1.37-39.32-1.4-39.32.04,0-24.02,16.78-31.14,38.56Z"/>
              <path class="cls-2" d="m5.5,153.89s24.86-10.67,44.31-4.63c3.96,1.23,7.39,3.07,10.37,5.2-1.3,10.68,1.54,19.92,4.04,25.63-8.73,2.2-20.68,3.84-31.44.53-20.11-6.16-27.42-26.76-27.28-26.73Z"/>
              <path class="cls-2" d="m28.08,196s23.75-10.87,43.82-4.72c4.09,1.25,7.71,3.12,10.91,5.3-.18,10.87,3.61,20.24,6.71,26.02-8.5,2.23-20.28,3.89-31.39.54-20.74-6.22-30.2-27.15-30.05-27.14Z"/>
              <path class="cls-2" d="m44.97,239.68s22.6-10.98,43.32-4.77c4.22,1.27,8.04,3.16,11.47,5.35.96,10.97,5.74,20.39,9.43,26.2-8.27,2.24-19.87,3.91-31.33.54-21.39-6.24-33.04-27.33-32.9-27.33Z"/>
              <path class="cls-2" d="m71.56,282.2s21.49-11.01,42.84-4.78c4.35,1.27,8.36,3.16,12.01,5.36,2.06,10.99,7.79,20.39,12.07,26.18-8.04,2.23-19.48,3.89-31.28.54-22.02-6.2-35.79-27.3-35.65-27.3Z"/>
              <path class="cls-2" d="m100.99,324.41s20.39-10.95,42.36-4.75c4.48,1.26,8.67,3.14,12.55,5.33,3.17,10.92,9.83,20.22,14.7,25.95-7.82,2.21-19.09,3.85-31.22.53-22.64-6.12-38.53-27.05-38.39-27.06Z"/>
              <path class="cls-2" d="m134.79,365.79s19.3-10.8,41.89-4.68c4.6,1.25,8.99,3.1,13.08,5.26,4.26,10.76,11.86,19.91,17.3,25.52-7.59,2.17-18.7,3.77-31.17.52-23.26-5.99-41.24-26.59-41.1-26.62Z"/>
              <path class="cls-2" d="m188.89,411.14c-.1.02,12.28-16.14,34.43-16.3,4.49-.03,9.02.62,13.39,1.66,7.76,9.69,17.8,16.94,24.59,21.22-5.68,4.31-14.47,8.98-26.37,9.05-22.13.16-46.14-15.61-46.04-15.63Z"/>
              <path class="cls-2" d="m91.13,185.41c-5.02,22.19,9.33,40.81,9.3,40.8.04.01,18.36-17.84,23.32-40.03,4.9-22.2-5.34-40.21-5.36-40.2.04,0-22.3,17.24-27.25,39.44Z"/>
              <path class="cls-2" d="m115.09,226.95c-2.79,22.44,13.41,41.12,13.38,41.11.04,0,16.59-17.89,19.32-40.34,2.66-22.45-9.42-40.82-9.45-40.82.04,0-20.53,17.59-23.25,40.04Z"/>
              <path class="cls-2" d="m143.21,268.82c-.55,22.53,17.49,41.12,17.46,41.11.04,0,14.82-17.81,15.31-40.34.43-22.53-13.5-41.12-13.53-41.12.04,0-18.76,17.81-19.24,40.34Z"/>
              <path class="cls-2" d="m177.45,314.55c1.89,22.43,21.95,40.77,21.92,40.76.04,0,12.88-17.56,10.94-39.99-2.01-22.42-17.96-41.1-17.99-41.09.04,0-16.82,17.89-14.87,40.32Z"/>
              <path class="cls-2" d="m214.19,354.65c4.04,22.18,25.89,40.15,25.86,40.14.04,0,11.17-17.21,7.07-39.38-4.17-22.16-21.9-40.77-21.93-40.76.04-.01-15.11,17.83-11,40Z"/>
            </g>
            <g>
              <path class="cls-2" d="m69.36,145.66c-7.19,21.77,5.36,40.21,5.33,40.2.04.01,20.08-17.66,27.21-39.45,7.06-21.8-1.37-39.32-1.4-39.32.04,0-24.02,16.78-31.14,38.56Z"/>
              <path class="cls-2" d="m5.5,153.89s24.86-10.67,44.31-4.63c3.96,1.23,7.39,3.07,10.37,5.2-1.3,10.68,1.54,19.92,4.04,25.63-8.73,2.2-20.68,3.84-31.44.53-20.11-6.16-27.42-26.76-27.28-26.73Z"/>
              <path class="cls-2" d="m28.08,196s23.75-10.87,43.82-4.72c4.09,1.25,7.71,3.12,10.91,5.3-.18,10.87,3.61,20.24,6.71,26.02-8.5,2.23-20.28,3.89-31.39.54-20.74-6.22-30.2-27.15-30.05-27.14Z"/>
              <path class="cls-2" d="m44.97,239.68s22.6-10.98,43.32-4.77c4.22,1.27,8.04,3.16,11.47,5.35.96,10.97,5.74,20.39,9.43,26.2-8.27,2.24-19.87,3.91-31.33.54-21.39-6.24-33.04-27.33-32.9-27.33Z"/>
              <path class="cls-2" d="m71.56,282.2s21.49-11.01,42.84-4.78c4.35,1.27,8.36,3.16,12.01,5.36,2.06,10.99,7.79,20.39,12.07,26.18-8.04,2.23-19.48,3.89-31.28.54-22.02-6.2-35.79-27.3-35.65-27.3Z"/>
              <path class="cls-2" d="m100.99,324.41s20.39-10.95,42.36-4.75c4.48,1.26,8.67,3.14,12.55,5.33,3.17,10.92,9.83,20.22,14.7,25.95-7.82,2.21-19.09,3.85-31.22.53-22.64-6.12-38.53-27.05-38.39-27.06Z"/>
              <path class="cls-2" d="m134.79,365.79s19.3-10.8,41.89-4.68c4.6,1.25,8.99,3.1,13.08,5.26,4.26,10.76,11.86,19.91,17.3,25.52-7.59,2.17-18.7,3.77-31.17.52-23.26-5.99-41.24-26.59-41.1-26.62Z"/>
              <path class="cls-2" d="m188.89,411.14c-.1.02,12.28-16.14,34.43-16.3,4.49-.03,9.02.62,13.39,1.66,7.76,9.69,17.8,16.94,24.59,21.22-5.68,4.31-14.47,8.98-26.37,9.05-22.13.16-46.14-15.61-46.04-15.63Z"/>
              <path class="cls-2" d="m91.13,185.41c-5.02,22.19,9.33,40.81,9.3,40.8.04.01,18.36-17.84,23.32-40.03,4.9-22.2-5.34-40.21-5.36-40.2.04,0-22.3,17.24-27.25,39.44Z"/>
              <path class="cls-2" d="m115.09,226.95c-2.79,22.44,13.41,41.12,13.38,41.11.04,0,16.59-17.89,19.32-40.34,2.66-22.45-9.42-40.82-9.45-40.82.04,0-20.53,17.59-23.25,40.04Z"/>
              <path class="cls-2" d="m143.21,268.82c-.55,22.53,17.49,41.12,17.46,41.11.04,0,14.82-17.81,15.31-40.34.43-22.53-13.5-41.12-13.53-41.12.04,0-18.76,17.81-19.24,40.34Z"/>
              <path class="cls-2" d="m177.45,314.55c1.89,22.43,21.95,40.77,21.92,40.76.04,0,12.88-17.56,10.94-39.99-2.01-22.42-17.96-41.1-17.99-41.09.04,0-16.82,17.89-14.87,40.32Z"/>
              <path class="cls-2" d="m214.19,354.65c4.04,22.18,25.89,40.15,25.86,40.14.04,0,11.17-17.21,7.07-39.38-4.17-22.16-21.9-40.77-21.93-40.76.04-.01-15.11,17.83-11,40Z"/>
            </g>
          </g>
        </g>
        <g>
          <path class="cls-2" d="m30.18,113.95c8,20.59,29.76,31.34,29.76,31.34,0,0,8.79-22.63.79-43.21-8-20.59-29.76-31.34-29.76-31.34,0,0-8.79,22.63-.79,43.21Z"/>
          <g>
            <g>
              <path class="cls-2" d="m69.36,145.66c-7.19,21.77,5.36,40.21,5.33,40.2.04.01,20.08-17.66,27.21-39.45,7.06-21.8-1.37-39.32-1.4-39.32.04,0-24.02,16.78-31.14,38.56Z"/>
              <path class="cls-2" d="m5.5,153.89s24.86-10.67,44.31-4.63c3.96,1.23,7.39,3.07,10.37,5.2-1.3,10.68,1.54,19.92,4.04,25.63-8.73,2.2-20.68,3.84-31.44.53-20.11-6.16-27.42-26.76-27.28-26.73Z"/>
              <path class="cls-2" d="m28.08,196s23.75-10.87,43.82-4.72c4.09,1.25,7.71,3.12,10.91,5.3-.18,10.87,3.61,20.24,6.71,26.02-8.5,2.23-20.28,3.89-31.39.54-20.74-6.22-30.2-27.15-30.05-27.14Z"/>
              <path class="cls-2" d="m44.97,239.68s22.6-10.98,43.32-4.77c4.22,1.27,8.04,3.16,11.47,5.35.96,10.97,5.74,20.39,9.43,26.2-8.27,2.24-19.87,3.91-31.33.54-21.39-6.24-33.04-27.33-32.9-27.33Z"/>
              <path class="cls-2" d="m71.56,282.2s21.49-11.01,42.84-4.78c4.35,1.27,8.36,3.16,12.01,5.36,2.06,10.99,7.79,20.39,12.07,26.18-8.04,2.23-19.48,3.89-31.28.54-22.02-6.2-35.79-27.3-35.65-27.3Z"/>
              <path class="cls-2" d="m100.99,324.41s20.39-10.95,42.36-4.75c4.48,1.26,8.67,3.14,12.55,5.33,3.17,10.92,9.83,20.22,14.7,25.95-7.82,2.21-19.09,3.85-31.22.53-22.64-6.12-38.53-27.05-38.39-27.06Z"/>
              <path class="cls-2" d="m134.79,365.79s19.3-10.8,41.89-4.68c4.6,1.25,8.99,3.1,13.08,5.26,4.26,10.76,11.86,19.91,17.3,25.52-7.59,2.17-18.7,3.77-31.17.52-23.26-5.99-41.24-26.59-41.1-26.62Z"/>
              <path class="cls-2" d="m188.89,411.14c-.1.02,12.28-16.14,34.43-16.3,4.49-.03,9.02.62,13.39,1.66,7.76,9.69,17.8,16.94,24.59,21.22-5.68,4.31-14.47,8.98-26.37,9.05-22.13.16-46.14-15.61-46.04-15.63Z"/>
              <path class="cls-2" d="m91.13,185.41c-5.02,22.19,9.33,40.81,9.3,40.8.04.01,18.36-17.84,23.32-40.03,4.9-22.2-5.34-40.21-5.36-40.2.04,0-22.3,17.24-27.25,39.44Z"/>
              <path class="cls-2" d="m115.09,226.95c-2.79,22.44,13.41,41.12,13.38,41.11.04,0,16.59-17.89,19.32-40.34,2.66-22.45-9.42-40.82-9.45-40.82.04,0-20.53,17.59-23.25,40.04Z"/>
              <path class="cls-2" d="m143.21,268.82c-.55,22.53,17.49,41.12,17.46,41.11.04,0,14.82-17.81,15.31-40.34.43-22.53-13.5-41.12-13.53-41.12.04,0-18.76,17.81-19.24,40.34Z"/>
              <path class="cls-2" d="m177.45,314.55c1.89,22.43,21.95,40.77,21.92,40.76.04,0,12.88-17.56,10.94-39.99-2.01-22.42-17.96-41.1-17.99-41.09.04,0-16.82,17.89-14.87,40.32Z"/>
              <path class="cls-2" d="m214.19,354.65c4.04,22.18,25.89,40.15,25.86,40.14.04,0,11.17-17.21,7.07-39.38-4.17-22.16-21.9-40.77-21.93-40.76.04-.01-15.11,17.83-11,40Z"/>
            </g>
            <g>
              <path class="cls-2" d="m69.36,145.66c-7.19,21.77,5.36,40.21,5.33,40.2.04.01,20.08-17.66,27.21-39.45,7.06-21.8-1.37-39.32-1.4-39.32.04,0-24.02,16.78-31.14,38.56Z"/>
              <path class="cls-2" d="m5.5,153.89s24.86-10.67,44.31-4.63c3.96,1.23,7.39,3.07,10.37,5.2-1.3,10.68,1.54,19.92,4.04,25.63-8.73,2.2-20.68,3.84-31.44.53-20.11-6.16-27.42-26.76-27.28-26.73Z"/>
              <path class="cls-2" d="m28.08,196s23.75-10.87,43.82-4.72c4.09,1.25,7.71,3.12,10.91,5.3-.18,10.87,3.61,20.24,6.71,26.02-8.5,2.23-20.28,3.89-31.39.54-20.74-6.22-30.2-27.15-30.05-27.14Z"/>
              <path class="cls-2" d="m44.97,239.68s22.6-10.98,43.32-4.77c4.22,1.27,8.04,3.16,11.47,5.35.96,10.97,5.74,20.39,9.43,26.2-8.27,2.24-19.87,3.91-31.33.54-21.39-6.24-33.04-27.33-32.9-27.33Z"/>
              <path class="cls-2" d="m71.56,282.2s21.49-11.01,42.84-4.78c4.35,1.27,8.36,3.16,12.01,5.36,2.06,10.99,7.79,20.39,12.07,26.18-8.04,2.23-19.48,3.89-31.28.54-22.02-6.2-35.79-27.3-35.65-27.3Z"/>
              <path class="cls-2" d="m100.99,324.41s20.39-10.95,42.36-4.75c4.48,1.26,8.67,3.14,12.55,5.33,3.17,10.92,9.83,20.22,14.7,25.95-7.82,2.21-19.09,3.85-31.22.53-22.64-6.12-38.53-27.05-38.39-27.06Z"/>
              <path class="cls-2" d="m134.79,365.79s19.3-10.8,41.89-4.68c4.6,1.25,8.99,3.1,13.08,5.26,4.26,10.76,11.86,19.91,17.3,25.52-7.59,2.17-18.7,3.77-31.17.52-23.26-5.99-41.24-26.59-41.1-26.62Z"/>
              <path class="cls-2" d="m188.89,411.14c-.1.02,12.28-16.14,34.43-16.3,4.49-.03,9.02.62,13.39,1.66,7.76,9.69,17.8,16.94,24.59,21.22-5.68,4.31-14.47,8.98-26.37,9.05-22.13.16-46.14-15.61-46.04-15.63Z"/>
              <path class="cls-2" d="m91.13,185.41c-5.02,22.19,9.33,40.81,9.3,40.8.04.01,18.36-17.84,23.32-40.03,4.9-22.2-5.34-40.21-5.36-40.2.04,0-22.3,17.24-27.25,39.44Z"/>
              <path class="cls-2" d="m115.09,226.95c-2.79,22.44,13.41,41.12,13.38,41.11.04,0,16.59-17.89,19.32-40.34,2.66-22.45-9.42-40.82-9.45-40.82.04,0-20.53,17.59-23.25,40.04Z"/>
              <path class="cls-2" d="m143.21,268.82c-.55,22.53,17.49,41.12,17.46,41.11.04,0,14.82-17.81,15.31-40.34.43-22.53-13.5-41.12-13.53-41.12.04,0-18.76,17.81-19.24,40.34Z"/>
              <path class="cls-2" d="m177.45,314.55c1.89,22.43,21.95,40.77,21.92,40.76.04,0,12.88-17.56,10.94-39.99-2.01-22.42-17.96-41.1-17.99-41.09.04,0-16.82,17.89-14.87,40.32Z"/>
              <path class="cls-2" d="m214.19,354.65c4.04,22.18,25.89,40.15,25.86,40.14.04,0,11.17-17.21,7.07-39.38-4.17-22.16-21.9-40.77-21.93-40.76.04-.01-15.11,17.83-11,40Z"/>
            </g>
          </g>
        </g>
      </g>
    </g>
    <g>
      <g>
        <path class="cls-1" d="m385,450.85s-8.5-10.35-11.75-31.05c0,0-16.75,24.7,11.75,31.05Z"/>
        <path class="cls-2" d="m391.53,454.87l-7.08-1.58c-9.16-2.04-15.02-6.14-17.42-12.19-4.11-10.35,3.8-22.2,4.14-22.7l3.55-5.24.98,6.26c3.11,19.8,11.14,29.76,11.22,29.85l4.6,5.6Zm-19.31-27.33c-1.25,3.49-2.07,7.87-.53,11.73,1.19,2.98,3.71,5.36,7.51,7.09-2.23-4.15-4.98-10.41-6.98-18.83Z"/>
      </g>
      <g>
        <path class="cls-1" d="m385.5,454.5s-10,6-20.02,26.43c0,0-8.95-28.25,20.02-26.43Z"/>
        <path class="cls-2" d="m364.98,487.62l-1.88-5.94c-.18-.57-4.35-14.09,2.49-22.84,4-5.12,10.75-7.42,20.07-6.83l8.02.5-6.88,4.13c-.2.12-9.63,6.14-19.07,25.39l-2.75,5.6Zm13.5-30.39c-4,.63-6.99,2.19-8.94,4.67-2.56,3.26-3.02,7.68-2.83,11.35,4.39-7.66,8.58-12.77,11.76-16.02Z"/>
      </g>
      <path class="cls-2" d="m410.27,457c-101.29-3.49-132.04-26.54-133.3-27.52l3.06-3.95c.3.23,31.15,23.06,130.41,26.48l-.17,5Z"/>
    </g>
  </g>
  <g>
    <g>
      <path class="cls-4" d="m507.68,113.95c-8,20.59-29.76,31.34-29.76,31.34,0,0-8.79-22.63-.79-43.21,8-20.59,29.76-31.34,29.76-31.34,0,0,8.79,22.63.79,43.21Z"/>
      <g>
        <path class="cls-4" d="m468.5,145.66c7.19,21.77-5.36,40.21-5.33,40.2-.04.01-20.08-17.66-27.21-39.45-7.06-21.8,1.37-39.32,1.4-39.32-.04,0,24.02,16.78,31.14,38.56Z"/>
        <path class="cls-4" d="m532.35,153.89s-24.86-10.67-44.31-4.63c-3.96,1.23-7.39,3.07-10.37,5.2,1.3,10.68-1.54,19.92-4.04,25.63,8.73,2.2,20.68,3.84,31.44.53,20.11-6.16,27.42-26.76,27.28-26.73Z"/>
        <path class="cls-4" d="m509.78,196s-23.75-10.87-43.82-4.72c-4.09,1.25-7.71,3.12-10.91,5.3.18,10.87-3.61,20.24-6.71,26.02,8.5,2.23,20.28,3.89,31.39.54,20.74-6.22,30.2-27.15,30.05-27.14Z"/>
        <path class="cls-4" d="m492.88,239.68s-22.6-10.98-43.32-4.77c-4.22,1.27-8.04,3.16-11.47,5.35-.96,10.97-5.74,20.39-9.43,26.2,8.27,2.24,19.87,3.91,31.33.54,21.39-6.24,33.04-27.33,32.9-27.33Z"/>
        <path class="cls-4" d="m466.3,282.2s-21.49-11.01-42.84-4.78c-4.35,1.27-8.36,3.16-12.01,5.36-2.06,10.99-7.79,20.39-12.07,26.18,8.04,2.23,19.48,3.89,31.28.54,22.02-6.2,35.79-27.3,35.65-27.3Z"/>
        <path class="cls-4" d="m436.86,324.41s-20.39-10.95-42.36-4.75c-4.48,1.26-8.67,3.14-12.55,5.33-3.17,10.92-9.83,20.22-14.7,25.95,7.82,2.21,19.09,3.85,31.22.53,22.64-6.12,38.53-27.05,38.39-27.06Z"/>
        <path class="cls-4" d="m403.07,365.79s-19.3-10.8-41.89-4.68c-4.6,1.25-8.99,3.1-13.08,5.26-4.26,10.76-11.86,19.91-17.3,25.52,7.59,2.17,18.7,3.77,31.17.52,23.26-5.99,41.24-26.59,41.1-26.62Z"/>
        <path class="cls-4" d="m348.97,411.14c.1.02-12.28-16.14-34.43-16.3-4.49-.03-9.02.62-13.39,1.66-7.76,9.69-17.8,16.94-24.59,21.22,5.68,4.31,14.47,8.98,26.37,9.05,22.13.16,46.14-15.61,46.04-15.63Z"/>
        <path class="cls-4" d="m446.72,185.41c5.02,22.19-9.33,40.81-9.3,40.8-.04.01-18.36-17.84-23.32-40.03-4.9-22.2,5.34-40.21,5.36-40.2-.04,0,22.3,17.24,27.25,39.44Z"/>
        <path class="cls-4" d="m422.76,226.95c2.79,22.44-13.41,41.12-13.38,41.11-.04,0-16.59-17.89-19.32-40.34-2.66-22.45,9.42-40.82,9.45-40.82-.04,0,20.53,17.59,23.25,40.04Z"/>
        <path class="cls-4" d="m394.64,268.82c.55,22.53-17.49,41.12-17.46,41.11-.04,0-14.82-17.81-15.31-40.34-.43-22.53,13.5-41.12,13.53-41.12-.04,0,18.76,17.81,19.24,40.34Z"/>
        <path class="cls-4" d="m360.4,314.55c-1.89,22.43-21.95,40.77-21.92,40.76-.04,0-12.88-17.56-10.94-39.99,2.01-22.42,17.96-41.1,17.99-41.09-.04,0,16.82,17.89,14.87,40.32Z"/>
        <path class="cls-4" d="m323.67,354.65c-4.04,22.18-25.89,40.15-25.86,40.14-.04,0-11.17-17.21-7.07-39.38,4.17-22.16,21.9-40.77,21.93-40.76-.04-.01,15.11,17.83,11,40Z"/>
      </g>
    </g>
    <g>
      <g>
        <path class="cls-3" d="m147,450.85s10.5-12.35,11.14-29.42c0,0,19.36,24.06-11.14,29.42Z"/>
        <path class="cls-4" d="m140.61,454.51l4.49-5.28c.17-.2,9.95-12,10.54-27.89l.25-6.69,4.2,5.21c.39.48,9.44,11.9,5.71,21.84-2.24,5.96-8.42,9.87-18.36,11.61l-6.82,1.2Zm19.16-25.57c-1.46,7.51-4.45,13.69-6.93,17.84,4.38-1.59,7.15-3.87,8.26-6.82,1.35-3.58.19-7.72-1.33-11.01Z"/>
      </g>
      <g>
        <path class="cls-3" d="m146.5,454.5s12,9,22.43,27.03c0,0,11.57-25.03-22.43-27.03Z"/>
        <path class="cls-4" d="m169.18,486.95l-2.41-4.17c-10.02-17.32-21.65-26.2-21.77-26.29l-6.61-4.98,8.26.48c12.15.71,20.29,4.38,24.19,10.9,5.28,8.81.56,19.24.36,19.68l-2.02,4.37Zm-15.03-28.94c3.8,3.8,8.89,9.57,13.94,17.35.45-2.93.41-6.67-1.55-9.92-2.18-3.61-6.33-6.1-12.39-7.43Z"/>
      </g>
      <path class="cls-4" d="m121.73,457l-.17-5c99.26-3.42,130.11-26.25,130.41-26.48l3.06,3.95c-1.26.98-32.01,24.04-133.3,27.52Z"/>
    </g>
  </g>
  <g>
    <path class="cls-8" d="m266,83c-92.23,0-167,74.77-167,167s74.77,167,167,167,167-74.77,167-167-74.77-167-167-167Zm0,236c-38.05,0-69-30.95-69-69s30.95-69,69-69,69,30.95,69,69-30.95,69-69,69Z"/>
    <g>
      <path class="cls-4" d="m226.22,101.17c.47,1.79-1.19,4.87-2.32,7.22-1.61,3.01-7.68,13.71-15.22,25.42-8.25,12.38-15.55,21.89-18.33,25.97,3.94,3.02,12.68,8.52,19.75,12.19,6.74,3.58,12.72,5.76,16.36,3.93,2.03-1.02,3.23-2.07,3.65-2.26.62-.28.97-.31,1.08.02.11.33,0,.75-.23,1.49-.65,1.67-2.83,4.49-4.58,5.43-3.93,2.06-10.66.83-19.15-3.15-7.16-3.42-12.34-6.66-18.37-10.39.81,7.8,2.16,15.63,3.27,19.42.6,1.86,2.12,4.28.12,6.41-1,1.07-2.38,1.36-3.19.19-2.77-3.6-5.71-24.38-5.79-32.47-.82-13.64-1.1-24.61-2.94-27.97-1.17-2.18-3.15-1.78-5.52.21-14.06,10.89-21.28,42.98-16.86,47.12,1.81,2.11,2.24,4.4.79,6.72-1.44,2.33-2.75,2.21-3.97.9-7.59-6.59,1.19-47.51,19.79-61.11,4.42-3.58,10.08-3.25,12.06.83,1.85,3.76,1.52,15.84,1.67,28.21,3.31-5,10.26-14.47,15.97-23.67,7.6-11.96,11.78-19.98,13.99-26.3,1.42-3.61,1.92-4.89,4.39-5.73,2.17-.72,3.2-.05,3.59,1.4Z"/>
      <path class="cls-4" d="m254.74,143.22c1.45-1.92,2.59-3.19,3.92-3.3,1.34-.11,1.91.56,1.95,1.49.05,1.05-.46,1.78-1.81,3.52-6.08,7.19-14.88,18.62-27.18,22.9-3.47,1.19-7.58-.99-8.55-4.52-.29-1.11-.73-1.29-1.02-2.4-.27-.99.35-2.61,1.31-3.49,2.13-12.57,10.32-19.82,17.27-21.26,2.58-.58,5.81.74,6.05,2.94.52,5.82-9.68,14.61-16.57,18.85-2.05,1.19-2,1.92-1.75,3.04.26,1.13,1.46,3.08,4.23,2.16,10.04-3.33,17.68-13.8,22.14-19.93Zm-26.11,11.5c4.07-1.71,13.03-10.6,12.82-12.93-.13-.92-.7-1.03-1.75-.79-4.21.91-9.96,10.36-11.07,13.72Z"/>
      <path class="cls-4" d="m302.57,146.99c1.85-1.27,3.12-2.09,4.56-1.64,1.18.37,1.68,1.27,1.49,2.17-.21,1.02-.87,1.51-2.71,2.62-7.37,4.48-16.63,11.61-22.04,10.96-6.2-.75-6.64-6.94-6.42-11.98.1-2.33,1.15-5.05,1.29-7.84.05-1.05-.18-1.89-1.53-1.98-4.42-.48-16.4,11.78-18.89,15.94-2.28,3.49-2.56,7.63-4.21,7.83-1.76.23-3.56.06-3.75-1.79-.27-1.74,3.51-16.27,5.61-23.23,1.42-5.15,2.04-7.11,5.82-7.33.7-.04,2.26.48,2.3,1.76.02,3.12-4.31,12.69-4.18,14.11.02.35.28.45.54.43.13-.14,12.35-14.17,20.03-13.3,2.79.24,4.85,2.39,4.65,4.83-.19,2.32-1.44,8.02-1.67,11.03-.31,3.95-.53,6.7,2.41,7.12,3.01.38,10.97-5.61,16.68-9.69Z"/>
      <path class="cls-4" d="m341.2,165.47c1.9-.65,3.39-.89,4.64.07,1.03.79,1.2,1.76.83,2.57-.41.91-1.03,1.24-2.99,1.63-7.8,1.76-18.35,5.99-26.04,2.34-5.93-2.84-8.38-11.85-7.87-14.36.32-1.32,4.85-.02,11.64-1.05,2.88-.39,5.95-1.05,6.37-2.34.28-.86-.19-2.13-1.2-2.64-1.46-.73-6.88-1.23-15.28,3.43-5.21,2.69-9.1,5.89-9.62,8.6-.18.9-2.52,2.13-3.68,1.83-1.17-.32-2.95-1.34-2.54-3.97.35-5.16,17.4-29.83,26.97-36.8,8.79-7.42,20.6-10.94,28.4-6.01,2.65,1.63,5.1,6.1,4.34,7.98-1.06,2.94-5.85,7.01-17.75,11.89-11.82,4.79-23.35,6.71-26.41,8.01-.79.32-4.14,3.91-4.38,5.16-.02.11-.05.23.08.27.38.13,1.42-.39,3.53-1.34,10.55-4.72,17.11-3.86,21.12-1.7,1.91,1.04,3.27,4.03,2.47,6.27-2.62,6.71-18.61,4.44-18.82,5.7-.34,1.34,1.25,5.65,4.98,7.49,5.27,2.53,14.9-1.14,21.17-3.02Zm-13.77-36.71c-7.65,6.1-12.56,12.26-12.78,12.52,1.21-.31,10.4-3.27,20.05-7.46,9.52-4.27,14.22-8.02,14.57-9.15.42-1.17-.32-2.03-1.48-2.73-3.47-2.15-12.39.57-20.36,6.82Z"/>
      <path class="cls-4" d="m336.43,184.07c-2.83-2.16-4.9-6.28-3.15-10.78,3.62-9.88,16.81-12.94,24.73-5.4,4.11,3.87,5.05,8.48,3.15,11.73-3.7,5.99-15.91,11.11-24.73,4.45Zm1.4-7.61c-.79,1.85-.01,3.89,1.33,4.93,3.95,2.98,13.59-.97,15.2-3.76.16-.29-1.17-2.26-.52-3.53.5-.98,1.23-1.46,1.43-1.85.1-.19.04-.39-.17-.59-4.75-4.48-14.5-1.98-17.26,4.79Z"/>
    </g>
    <g>
      <path class="cls-4" d="m221.26,335.72c-.43,1-2.26,1.31-5.08,2.13-3.77.93-9.31,3.08-16.9,7.31-5.7,3.04-10.46,5.78-14.37,8.04,18.87,5.53,33.73,9.15,44.61,11.78,6.21-5.36,10.01-11.55,11.44-17.72,1.58-7.43-3.34-13.61-11.15-16.95-17.52-5.81-47.48-13.85-56.49-6.83-.66.69-1.14,2.22-1.87,2.99-.72.77-2.67.31-4.07-1.39-1.4-1.7-1.62-3.72-.02-5.23,6.28-5.81,18.18-4.01,30.43-1.92,12.36,2.44,25.08,5.15,35.43,9.21,10.91,4.24,14.63,13.19,13.25,21.55-1.13,6.13-4.42,12.43-9.75,17.95,3.49.69,6.18,1.24,7.73,1.55,2.31.46,4.29,1.44,4.09,2.85-.2,1.4-1.74,1.75-5.32,1.04-1.59-.32-5.41-1.11-10.31-2.17-17.57,16.4-58.16,17.8-80.06-4.8-7.74-7.62-10.87-16.25-7.08-19.87,4.1-4.11,14.65.27,30.76,5.42,4.76-2.94,11.23-6.28,18.41-9.76,9.53-4.8,15.67-6.58,20.36-8.37,2.23-.96,3.8-.98,4.39-.67,1.65.87,2.08,2.65,1.57,3.85Zm3.96,32.44c-10.81-2.77-24.71-5.85-45.11-12.03-4.31,2.86-7.1,5.39-8.63,7.59-.61.88-1.41,2.03-3.07.64-1.67-1.39-3.88-4.83-2.63-6.43.52-.68,2.51-2.17,5.63-4.23-12.09-3.65-17.86-5.42-20.25-2.74-2.23,2.37-.85,6.16,4.42,11.37,17.74,18.22,52.07,18.83,69.62,5.84Z"/>
      <path class="cls-4" d="m261.39,371.4c-.05.87-.2,3.41,1.95,3.52,5.56.29,10.72-2.96,12-3.02,1.32-.05,2.41.65,2.47,1.75.05,1.08-1.59,2.56-6.1,4.28-5.07,1.97-11.51,1.56-12.05,1.5-3.21,6.34-11.03,14.51-21.67,12.28-4.21-.89-7.82-4.27-6.68-8.83,2.68-9.78,14.7-16.62,23.36-15.72,4.71.54,6.78,2.59,6.7,4.25Zm-24.09,12.97c-.4,1.93,1.11,3.52,3.02,3.9,5.89,1.24,14.37-7.73,14.54-11.04.03-.32-1.96-1.11-1.79-2.53.12-1.09.62-1.91.66-2.35.02-.22-.1-.34-.36-.38-5.52-.61-14.5,5.49-16.07,12.4Z"/>
      <path class="cls-4" d="m319.95,367.63c1.01-2.16,1.63-3.59,3.01-4.18,1.12-.48,1.98-.16,2.3.65.35.91.1,1.75-.91,3.84-3.71,8.43-11.07,19.77-18.01,21.4-7.74,1.83-9.58-4.03-10.32-8.64-.35-2.17.17-4.94-.28-7.53-.17-.97-.56-1.67-1.87-1.44-3.77.89-15.35,13.42-19.1,16.88-2.85,3.16-3.62,7-5.76,6.99-2.29-.01-4.57-.54-4.51-2.29.17-1.61,6.4-14.55,8.48-21.02,1.61-4.77,2.15-6.52,5.56-6.73.63-.04,2.06.4,2.15,1.6.31,2.97-3.88,12.05-3.92,13.35.01.33.3.43.58.41.73.09,12.16-13.63,18.45-15.14,2.52-.51,4.89.71,5.39,2.96.47,2.14.79,7.69,1.36,10.48.75,3.64,1.28,6.25,4.74,5.37,3.68-.89,9.89-10.17,12.68-16.97Z"/>
      <path class="cls-4" d="m355.89,346.59c.31-2.32.64-4.01,1.71-4.94,1.06-.93,1.87-.81,2.39-.12.58.77.55,1.67.22,3.93-1.5,9.5-5.78,22.97-11.79,26.53-4.69,2.82-6.96.51-8.06-1.82-.51-1.08-.67-2.1-1-2.79-2.85,6.09-8.34,14.73-14.45,17.05-4.76,1.81-6.85-.44-7.34-2.1-1.4-5.21,4.89-13.85,2.63-19.72-.84-2.37-.73-4.39,1.53-5.38,2.26-1,3.07.28,3.77,1.99,2.61,5.95-2.85,16.69-2,19.66.28.82.77,1.34,2.17.78,2.61-.94,9.65-10.06,11.11-16.68.73-3.48,1.14-8.48,1.82-11.19.43-1.79,1.13-3.26,1.8-3.7,1.9-1.25,2.88-.63,3.37.21.16.28.2,1.69-.12,3.07-.39,2.08-.91,5.48-.56,8.3.29,2.99.74,5.49,1.49,6.93.74,1.44,1.79,1.82,2.83,1.18,3.23-1.9,7.45-13.6,8.47-21.19Z"/>
      <path class="cls-4" d="m362.58,317.29c1.37-1.63,2.22-1.54,3.28-.51,2.07,2.01-2.99,8.11-6.56,11.61,1.6,13.06,2.2,27.01,5.3,31.63.79,1.15,1.84.98,2.39,1.77.49.7.35,2.49-1.44,3.91-1.93,1.51-4.1,1.11-5.53-1.17-3.26-5.31-3.69-19.58-5.26-31.93-1.65,1.59-6.36,5.5-7.63,3.59-.84-1.25-.44-2.93,1.13-4.25,1.46-1.25,2.2-.91,3.36-1.95.96-.87,1.79-1.93,2.69-3.09-.78-6.93-1.72-11.5-2.16-16.22-.38-3.38-.31-5.11.66-6.3.96-1.19,2-1.51,2.92-.64.91.87,1.4,1.64,1.05,4.57-.27,2.66.93,7.77,2.1,14.25,1.72-1.84,2.43-3.78,3.72-5.3Z"/>
    </g>
  </g>
  <g>
    <g>
      <path class="cls-4" d="m317.38,202.88c-9.11,0-16.5,7.39-16.5,16.5s7.39,16.5,16.5,16.5,16.5-7.39,16.5-16.5-7.39-16.5-16.5-16.5Zm0,23.23c-3.72,0-6.73-3.01-6.73-6.73s3.01-6.73,6.73-6.73,6.73,3.01,6.73,6.73-3.01,6.73-6.73,6.73Z"/>
      <path class="cls-4" d="m214.25,204.75c-9.11,0-16.5,7.39-16.5,16.5s7.39,16.5,16.5,16.5,16.5-7.39,16.5-16.5-7.39-16.5-16.5-16.5Zm0,23.23c-3.72,0-6.73-3.01-6.73-6.73s3.01-6.73,6.73-6.73,6.73,3.01,6.73,6.73-3.01,6.73-6.73,6.73Z"/>
    </g>
    <path class="cls-7" d="m327,263c8.02,21.65-20,55-60,56-45,0-67.52-36.17-60-56,11-29,18-51,60-51s50,24,60,51Z"/>
    <g class="cls-10">
      <path class="cls-4" d="m317.38,202.88c-9.11,0-16.5,7.39-16.5,16.5s7.39,16.5,16.5,16.5,16.5-7.39,16.5-16.5-7.39-16.5-16.5-16.5Zm0,23.23c-3.72,0-6.73-3.01-6.73-6.73s3.01-6.73,6.73-6.73,6.73,3.01,6.73,6.73-3.01,6.73-6.73,6.73Z"/>
    </g>
    <g class="cls-9">
      <path class="cls-4" d="m214.25,204.75c-9.11,0-16.5,7.39-16.5,16.5s7.39,16.5,16.5,16.5,16.5-7.39,16.5-16.5-7.39-16.5-16.5-16.5Zm0,23.23c-3.72,0-6.73-3.01-6.73-6.73s3.01-6.73,6.73-6.73,6.73,3.01,6.73,6.73-3.01,6.73-6.73,6.73Z"/>
    </g>
  </g>
  <path class="cls-6" d="m292,265c9,19-12.19,31-26,31s-35-12-24-31c6.64-11.47,11.19-24,25-24s19.33,12.02,25,24Z"/>
  <circle class="cls-4" cx="235" cy="250.5" r="4"/>
  <circle class="cls-4" cx="298" cy="250.5" r="4"/>
  <circle class="cls-4" cx="266" cy="252" r="4"/>
  <path class="cls-4" d="m272.23,260.99c-2.44,0-4.73-.9-6.23-1.8-6.29,3.76-11.57-.36-11.62-.4-.43-.35-.5-.97-.16-1.41.34-.43.97-.5,1.4-.16.19.15,4.54,3.48,9.82-.05l.56-.38.56.38c.24.16,5.91,3.98,10.14.09.41-.37,1.04-.35,1.41.06s.35,1.04-.06,1.41c-1.8,1.66-3.86,2.25-5.83,2.25Z"/>
  <rect class="cls-4" x="265" y="250" width="2" height="8"/>
  <g>
    <path class="cls-6" d="m218.69,301.41l-2.39-1.82.28-.36c.36-.47,1.46-1.88,1.65-2.25,2.42-4.95-.66-11.45-6.85-14.47-2.45-1.2-5.09-1.71-7.63-1.48l-.27-2.99c3.08-.28,6.26.34,9.21,1.78,7.68,3.75,11.37,12.04,8.23,18.48-.25.52-.92,1.41-1.98,2.77l-.26.34Z"/>
    <ellipse class="cls-4" cx="207" cy="291.5" rx="11.5" ry="14" transform="translate(-145.75 349.72) rotate(-63.99)"/>
  </g>
  <g>
    <path class="cls-6" d="m312.07,301.32c-.41-.46-.79-.95-1.13-1.48-3.86-6.04-1.13-14.7,6.07-19.3,3.94-2.52,9.24-3.08,12.73-2.52l-.47,2.96c-2.84-.45-7.38,0-10.64,2.09-5.81,3.71-8.12,10.51-5.16,15.15.25.38.52.75.82,1.08l-2.22,2.02Z"/>
    <ellipse class="cls-4" cx="324" cy="291.5" rx="14" ry="11.5" transform="translate(-105.95 220.12) rotate(-32.55)"/>
  </g>
</svg>