<?xml version="1.0" encoding="UTF-8"?>
<svg id="_レイヤー_2" data-name="レイヤー 2" xmlns="http://www.w3.org/2000/svg" xmlns:xlink="http://www.w3.org/1999/xlink" viewBox="0 0 63.32 29.12">
  <defs>
    <style>
      .cls-1 {
        fill: #231815;
      }

      .cls-1, .cls-2, .cls-3, .cls-4, .cls-5, .cls-6, .cls-7, .cls-8, .cls-9, .cls-10 {
        stroke-width: 0px;
      }

      .cls-2 {
        fill: none;
      }

      .cls-3 {
        fill: #22ac38;
      }

      .cls-4 {
        fill: #fff;
      }

      .cls-5 {
        fill: #9fa0a0;
      }

      .cls-11 {
        clip-path: url(#clippath);
      }

      .cls-6 {
        fill: #e60012;
      }

      .cls-7 {
        fill: #727171;
      }

      .cls-8 {
        fill: #f8b62d;
      }

      .cls-9 {
        fill: #1d2088;
      }

      .cls-10 {
        fill: #efefef;
      }
    </style>
    <clipPath id="clippath">
      <path class="cls-2" d="M12.43,3.39v24.26h26.94V3.39H12.43ZM31.88,23.34l-3.51,1.78c-.12.35-.38.63-.73.79l-.55.24-.55.08c-.68-.1-1.23-.27-1.7-.48.19-.29.46-.54.72-.69.44-.25.92-.41,1.36-.66.3-.17.57-.39.86-.58.73-.45,1.48-.89,2.25-1.28.14-.07.26-.05.36.02l.9-1.58c.12.08.25.14.36.22.22.16.42.38.62.69l-.38,1.45Z"/>
    </clipPath>
  </defs>
  <g id="_制作レイヤー" data-name="制作レイヤー">
    <g>
      <g>
        <g>
          <path class="cls-10" d="M18.43,23.32c-1.15.99-2.27,1.23-1.89,2.54.82.93,3.74.12,5.72-.71"/>
          <path class="cls-1" d="M18.17,23.06c-.53.45-1.22.78-1.68,1.31-.21.24-.35.51-.39.83s-.01.75.22.97c.39.38.97.47,1.49.48.7,0,1.4-.13,2.08-.3.85-.21,1.67-.5,2.48-.84.19-.08.32-.25.26-.46-.05-.18-.27-.34-.46-.26-.79.33-1.6.62-2.44.83-.7.18-1.45.34-2.18.27-.23-.02-.45-.08-.64-.2-.06-.03-.06-.12-.03-.01-.03-.09-.04-.18-.04-.28,0-.13.02-.24.08-.35.15-.28.45-.48.7-.66.37-.26.73-.51,1.08-.8.37-.31-.16-.84-.53-.53h0Z"/>
        </g>
        <g>
          <path class="cls-10" d="M54.46,15.61c1.39-.32,2.62-.07,4,.29,1.05.27.62,1.34.41,1.47-.58.38-1.18.48-1.76.86"/>
          <path class="cls-1" d="M54.56,15.97c.77-.17,1.55-.17,2.32-.04.38.06.76.15,1.14.25.15.04.32.06.47.13.07.03.17.1.19.12.16.19.09.48-.05.68.07-.1-.07.04.05-.05-.07.05-.14.09-.21.12-.15.08-.31.16-.48.22-.37.15-.74.3-1.08.51-.41.26-.03.91.38.65.57-.36,1.29-.48,1.81-.9.26-.21.38-.59.4-.91.03-.45-.21-.87-.62-1.08-.29-.15-.64-.21-.96-.28-.36-.09-.72-.16-1.09-.21-.83-.12-1.66-.11-2.48.08-.47.11-.27.83.2.72h0Z"/>
        </g>
        <g>
          <g>
            <path class="cls-4" d="M35.41,20.43c1.55-1.82,1.82-4.08,1.38-6.09-.51-2.34-1.44-2.91-3.38-4.5-.88-1.61-1.33-2.9-2.96-4.07-1.28,1.13-1.91,2.61-2.25,3.85v.35c-2.29-.16-4.04.36-6.3,1.15-.72-1.18-1.54-2.08-2.89-2.97-1.11,1.39-1.52,2.99-1.86,4.66-1.88,1.46-2.89,4.45-2.06,6.66s2.87,3.76,5.03,4.72c1.32.59,2.74,1,4.19,1.05,1.55.06,1.23.06,2.73-.59"/>
            <path class="cls-1" d="M35.68,20.69c1.92-2.32,2.34-6.07.61-8.65-.33-.49-.74-.91-1.19-1.3-.61-.54-1.29-.95-1.68-1.68-.74-1.41-1.48-2.65-2.78-3.62-.14-.1-.34-.05-.45.06-.76.69-1.36,1.53-1.78,2.46-.29.63-.57,1.3-.57,2l.38-.38c-2.24-.13-4.31.43-6.4,1.17l.42.17c-.79-1.27-1.79-2.28-3.03-3.1-.12-.08-.36-.07-.45.06-.61.78-1.06,1.64-1.38,2.58-.16.48-.29.96-.4,1.45-.05.21-.06.47-.17.67s-.37.37-.53.53c-1.15,1.23-1.84,2.95-1.84,4.64-.02,3.9,3.98,6.47,7.31,7.44,1.11.32,2.26.47,3.41.45.76-.01,1.39-.36,2.08-.66.44-.19.06-.84-.38-.65-.51.22-1.02.52-1.58.55-.92.05-1.88-.06-2.78-.28-1.76-.42-3.51-1.23-4.91-2.39-1.26-1.05-2.34-2.52-2.41-4.22-.06-1.57.55-3.21,1.62-4.36.26-.28.62-.47.73-.83.15-.48.21-1,.35-1.48.29-1.05.72-2.05,1.39-2.92l-.45.06c1.13.76,2.04,1.68,2.76,2.84.08.13.27.23.42.17,2.03-.71,4.03-1.27,6.2-1.14.2.01.38-.18.38-.38,0-.62.28-1.24.55-1.79.39-.82.92-1.53,1.59-2.14l-.45.06c1.21.9,1.87,2.12,2.55,3.43.56,1.07,1.78,1.62,2.56,2.55,1.86,2.22,1.54,5.95-.23,8.09-.31.37.22.9.53.53h0Z"/>
          </g>
          <g>
            <path class="cls-4" d="M36.21,12.28c3.83,1.68,8.39.99,12.52,1.48,1.73-.56,3.93-2.45,4.72-4.09s.87-3.6.22-5.3c-.16-.41-.28-.74-.61-1.02-.88-.75-2.34-.94-3.44-.62-1.97.57-1.41,3.51-1.41,3.72,0,.6-.71,1.01-1.29.87s-1-.66-1.22-1.22c-.56-1.4-.1-3.09.96-4.17s2.62-1.57,4.13-1.54c2.95.06,4.97,1.87,5.41,4.79.27,1.79.11,3.96-.65,5.51-.8,1.62-1.97,2.78-3.49,3.75.89.28,1.17.58,1.97,1.12,2.06,1.39,3.97,4.59,5.11,4.94,1.37.42,3.82,1.58,3.82,2.72-.14.6-.23.83-.84.85s-1.49.03-2.1-.04c-1.5-.16-2.81-.28-4.22.25-2.98,1.11-9.57,1.55-9.57,1.55-4.98.46-7.22.46-12.8.46-2.28,0-7.43,1.27-8.38.51-.32-1.52,1.48-1.51,2.53-2.38.28-.23,2.18-1.31,2.64-1.54"/>
            <path class="cls-1" d="M36.02,12.61c2.25.96,4.68,1.18,7.1,1.26,1.23.04,2.46.05,3.69.11.6.03,1.21.14,1.81.14.44,0,.91-.27,1.3-.48,1.77-.96,3.43-2.54,4.14-4.46.4-1.1.51-2.3.35-3.45-.14-.96-.42-2.14-1.22-2.77-1.25-.98-3.77-1.21-4.82.19-.4.53-.55,1.2-.59,1.85-.03.47.09.94.06,1.4-.05.67-.88.63-1.27.31-.49-.4-.7-1.11-.73-1.72-.07-1.17.49-2.33,1.38-3.08,1.68-1.43,4.44-1.55,6.31-.42,2.07,1.25,2.53,3.76,2.4,6-.16,2.86-1.69,5.08-4.06,6.6-.28.18-.22.58.09.69,2.16.73,3.7,2.75,5.15,4.4.49.56,1.03,1.25,1.73,1.58.87.41,1.78.65,2.61,1.18.36.23.83.53,1.03.93.1.19.13.38.02.58-.16.28-.44.22-.74.23-1.27.02-2.52-.2-3.78-.18-1.12.01-2.08.37-3.13.67-.92.26-1.86.44-2.8.6-3.24.54-6.56.79-9.83.97-2.17.12-4.35.14-6.53.15-1.12,0-2.25-.04-3.37.07-.96.09-1.92.24-2.87.38-1.01.14-2.04.3-3.06.31-.24,0-.8.06-1-.11-.02-.02-.07-.02-.09-.05.09.15.12-.23.14-.27.08-.23.27-.36.46-.48.4-.25.87-.4,1.29-.63.33-.18.62-.42.94-.62.74-.47,1.51-.91,2.29-1.31.43-.22.05-.86-.38-.65-.77.39-1.52.82-2.25,1.28-.29.18-.56.41-.86.58-.44.25-.93.41-1.36.66-.58.34-1.27,1.19-.83,1.92.31.51,1.35.44,1.84.42,2.07-.06,4.09-.56,6.15-.72,1.32-.1,2.66-.03,3.98-.04,1.23,0,2.46-.02,3.68-.06,3.64-.12,7.32-.41,10.92-.94,1.08-.16,2.15-.34,3.21-.6,1.21-.3,2.31-.78,3.58-.79,1.35,0,2.68.26,4.03.17.83-.05,1.43-.79,1.15-1.64-.33-1.01-1.6-1.65-2.49-2.07-.52-.24-1.08-.39-1.6-.63-.4-.19-.71-.55-1.01-.86-1.79-1.9-3.42-4.3-6.01-5.17l.09.69c1.89-1.22,3.49-2.93,4.1-5.14.57-2.06.56-4.59-.4-6.53-1.79-3.62-7.55-4.23-9.97-.92-.65.89-.99,2.02-.86,3.12.11.92.57,1.97,1.49,2.32.75.29,1.76-.07,1.96-.92.1-.42-.05-.92-.05-1.35,0-.69.12-1.52.69-1.99.83-.67,2.37-.48,3.23.01,1.09.62,1.31,2.33,1.29,3.47-.02,1.25-.39,2.49-1.13,3.51-.79,1.09-1.89,2.02-3.07,2.66-.32.17-.65.37-1.02.36s-.71-.07-1.06-.09c-.72-.05-1.44-.08-2.16-.09-2.99-.08-6.1-.02-8.9-1.22-.44-.19-.82.46-.38.65h0Z"/>
          </g>
          <g class="cls-11">
            <g>
              <path class="cls-4" d="M35.41,20.43c1.55-1.82,1.82-4.08,1.38-6.09-.51-2.34-1.44-2.91-3.38-4.5-.88-1.61-1.33-2.9-2.96-4.07-1.28,1.13-1.91,2.61-2.25,3.85v.35c-2.29-.16-4.04.36-6.3,1.15-.72-1.18-1.54-2.08-2.89-2.97-1.11,1.39-1.52,2.99-1.86,4.66-1.88,1.46-2.89,4.45-2.06,6.66s2.87,3.76,5.03,4.72c1.32.59,2.74,1,4.19,1.05,1.55.06,1.23.06,2.73-.59"/>
              <path class="cls-1" d="M35.68,20.69c1.92-2.32,2.34-6.07.61-8.65-.33-.49-.74-.91-1.19-1.3-.61-.54-1.29-.95-1.68-1.68-.74-1.41-1.48-2.65-2.78-3.62-.14-.1-.34-.05-.45.06-.76.69-1.36,1.53-1.78,2.46-.29.63-.57,1.3-.57,2l.38-.38c-2.24-.13-4.31.43-6.4,1.17l.42.17c-.79-1.27-1.79-2.28-3.03-3.1-.12-.08-.36-.07-.45.06-.61.78-1.06,1.64-1.38,2.58-.16.48-.29.96-.4,1.45-.05.21-.06.47-.17.67s-.37.37-.53.53c-1.15,1.23-1.84,2.95-1.84,4.64-.02,3.9,3.98,6.47,7.31,7.44,1.11.32,2.26.47,3.41.45.76-.01,1.39-.36,2.08-.66.44-.19.06-.84-.38-.65-.51.22-1.02.52-1.58.55-.92.05-1.88-.06-2.78-.28-1.76-.42-3.51-1.23-4.91-2.39-1.26-1.05-2.34-2.52-2.41-4.22-.06-1.57.55-3.21,1.62-4.36.26-.28.62-.47.73-.83.15-.48.21-1,.35-1.48.29-1.05.72-2.05,1.39-2.92l-.45.06c1.13.76,2.04,1.68,2.76,2.84.08.13.27.23.42.17,2.03-.71,4.03-1.27,6.2-1.14.2.01.38-.18.38-.38,0-.62.28-1.24.55-1.79.39-.82.92-1.53,1.59-2.14l-.45.06c1.21.9,1.87,2.12,2.55,3.43.56,1.07,1.78,1.62,2.56,2.55,1.86,2.22,1.54,5.95-.23,8.09-.31.37.22.9.53.53h0Z"/>
            </g>
          </g>
        </g>
        <g>
          <path class="cls-4" d="M16.95,18.88c-1.39.14-2.75.59-3.96,1.3"/>
          <path class="cls-1" d="M16.95,18.51c-1.46.16-2.87.61-4.14,1.35-.42.24-.04.89.38.65,1.15-.67,2.44-1.11,3.77-1.25.2-.02.38-.16.38-.38,0-.19-.17-.4-.38-.38h0Z"/>
        </g>
        <g>
          <path class="cls-4" d="M18.47,20.92c-2.33.59-3.18,1.2-4.7,2.75"/>
          <path class="cls-1" d="M18.37,20.56c-.95.24-1.9.54-2.74,1.05-.8.48-1.47,1.13-2.12,1.8-.34.35.19.88.53.53.6-.62,1.22-1.23,1.97-1.68.79-.48,1.67-.75,2.56-.98.47-.12.27-.84-.2-.72h0Z"/>
        </g>
        <g>
          <path class="cls-4" d="M34.98,16.32c1.09-.86,3.07-1.37,4.87-1.19"/>
          <path class="cls-1" d="M35.25,16.59c.59-.46,1.32-.72,2.04-.9.84-.2,1.71-.26,2.57-.18.2.02.38-.19.38-.38,0-.22-.17-.36-.38-.38-1.75-.17-3.72.21-5.13,1.3-.16.13-.13.4,0,.53.16.16.37.12.53,0h0Z"/>
        </g>
        <g>
          <path class="cls-4" d="M35.05,18.36c2.26-.36,3.29-.38,4.8.12"/>
          <path class="cls-1" d="M35.15,18.72c.85-.13,1.71-.26,2.58-.25.69.01,1.36.15,2.02.37.46.15.66-.57.2-.72-.72-.23-1.46-.38-2.22-.39-.93-.02-1.86.13-2.78.27-.2.03-.31.28-.26.46.06.21.26.29.46.26h0Z"/>
        </g>
        <path class="cls-1" d="M22.28,18.13c-.41.89.04,2.04,1,2.33,1.05.32,2.17-.68,2.06-1.74l-.7.19c.99,1.38,3.34,1.07,3.93-.52.17-.45-.56-.65-.72-.2-.36.96-1.96,1.18-2.56.34-.19-.27-.74-.22-.7.19.06.57-.5,1.22-1.11,1.02-.47-.15-.77-.77-.56-1.23s-.44-.82-.65-.38h0Z"/>
        <path class="cls-1" d="M18.17,17.43c.95-.87,2.31-1.23,3.57-.94.47.11.67-.61.2-.72-1.52-.35-3.15.08-4.29,1.13-.36.33.18.86.53.53h0Z"/>
        <path class="cls-1" d="M27.15,15.82c.78-.29,1.59-.47,2.43-.4s1.6.4,2.31.81c.42.24.8-.4.38-.65-.81-.47-1.68-.81-2.61-.91s-1.85.1-2.71.42c-.45.17-.25.89.2.72h0Z"/>
      </g>
      <g>
        <g>
          <path class="cls-7" d="M1.88,26.28c.56.33.95.96,1.5,1.41.38.31,1.38,1.15,1.87,1.07.33-.05.89-.32,1.04-.62.13-.26.08-.56.02-.84-.1-.49-.77-1.35-.95-1.81.44-.06,1.2-.44.91-1.62l.72-.7s.86.23,1.28-.07c.47-.33.58-1.02.58-1.02.77.82,1.05.89,1.87,1.01.73.11.92-.66,1.01-1.01.08-.3-.28-.93-.5-1.15-.84-.83-1.03-1.03-1.72-1.49-.21-.34-.82-.87-1.03-1.01-.28-.19-.76-.55-1.1-.55-.5,0-1.16-.1-1.32-.09-.24.02-.88.53-1.07.68-.24.2-.51.45-.48.77,0,.08-.05.4-.1.46-.59.69-1.22,1.34-1.88,1.95-.09.08-.53.13-.64.11-.43-.1-.81.29-1.08.63-.17.21-.41.5-.42.77-.01.52.06.72.05.88-.13,1.4.47,1.66,1.45,2.23Z"/>
          <path class="cls-1" d="M1.69,26.6c.73.47,1.25,1.23,1.94,1.76.54.41,1.19.92,1.91.71.81-.24,1.31-.79,1.18-1.66-.12-.8-.72-1.4-1.03-2.12l-.22.55c1.04-.18,1.37-1.14,1.17-2.08l-.1.36.72-.7-.36.1c1.11.28,2.1-.15,2.32-1.35l-.63.17c.62.64,1.29,1.1,2.21,1.13.74.02,1.15-.6,1.29-1.26.19-.89-.64-1.63-1.22-2.17-.26-.25-.53-.48-.82-.69-.36-.26-.61-.61-.95-.91-.27-.24-.57-.46-.88-.64-.45-.27-.84-.28-1.35-.32-.35-.03-.72-.13-1.06,0-.37.14-.7.43-1.01.68-.35.29-.58.56-.65,1.01-.09.58-.65,1.01-1.06,1.43-.21.21-.43.48-.67.66-.23.16-.35.13-.61.13-.52.01-.88.29-1.21.68S0,22.83,0,23.37c0,.45,0,.96.06,1.41.13.95.86,1.38,1.63,1.82.42.24.8-.41.38-.65-.48-.28-1.08-.54-1.24-1.12-.08-.31-.02-.63-.03-.95-.02-.45-.09-.76.21-1.15.12-.16.25-.33.41-.46.21-.16.36-.13.6-.14s.52-.05.73-.19c.37-.25.7-.66,1.01-.98s.74-.69.97-1.08c.11-.2.1-.4.15-.61.09-.38.45-.62.76-.84.27-.19.41-.29.73-.26.37.03.81,0,1.16.1.63.19,1.19.81,1.61,1.27.39.43.93.75,1.36,1.17.46.44,1.24,1.18.64,1.84-.24.26-.71.12-1.01.01-.41-.14-.71-.46-1.01-.77-.18-.19-.58-.12-.63.17-.11.6-.44.95-1.07.89-.4-.04-.56-.09-.86.21-.24.23-.64.48-.65.84s.15.66-.11.95c-.14.16-.33.22-.53.26-.26.05-.31.35-.22.55.22.52.61.96.83,1.48.16.37.21.76-.15,1.03-.27.2-.54.24-.83.11-1.16-.51-1.78-1.68-2.81-2.34-.41-.26-.78.39-.38.65Z"/>
        </g>
        <g>
          <path class="cls-5" d="M2.7,22.07c.29.23,1.43.9,1.65.76.5-.33,1.31-1.19,1.56-1.64.13-.23-.71-1.25-.97-1.42"/>
          <path class="cls-1" d="M2.53,22.25c.33.26.72.48,1.1.66.19.08.38.17.59.19s.36-.11.51-.23c.44-.35.83-.77,1.17-1.21.12-.15.28-.33.28-.54,0-.18-.11-.36-.2-.51-.23-.38-.54-.8-.91-1.05-.27-.18-.52.25-.25.43.05.04-.01-.01.02.02.02.02.05.04.07.07.06.06.12.12.18.19.12.14.24.28.34.43.05.07.1.15.15.23.04.07.07.13.09.18,0,.01,0,.03.01.04,0,.04-.01,0,0-.01-.03.05.06-.1,0-.03s-.09.15-.15.22c-.27.38-.61.72-.96,1.03-.07.07-.15.13-.23.19-.03.02-.07.04-.1.07-.05.05-.01,0,0,0-.05,0,.06,0,0,0s0,0-.04,0c-.03,0-.06-.01-.09-.02-.08-.02-.15-.05-.22-.08-.21-.09-.4-.2-.6-.31-.09-.05-.18-.11-.28-.17-.04-.02-.07-.05-.11-.07-.02-.01-.1-.08-.06-.04-.11-.08-.25-.1-.35,0-.09.09-.11.27,0,.35h0Z"/>
        </g>
        <path class="cls-8" d="M6.51,19.59c.48,0,.48-.75,0-.75s-.48.75,0,.75h0Z"/>
        <path class="cls-3" d="M7.69,20.56c.48,0,.48-.75,0-.75s-.48.75,0,.75h0Z"/>
        <path class="cls-6" d="M7.62,19.51c.48,0,.48-.75,0-.75s-.48.75,0,.75h0Z"/>
        <path class="cls-9" d="M6.63,20.66c.48,0,.48-.75,0-.75s-.48.75,0,.75h0Z"/>
        <rect class="cls-1" x="1.49" y="23.69" width="2.07" height=".75" transform="translate(-17.6 10.63) rotate(-50.28)"/>
        <rect class="cls-1" x="2.15" y="22.99" width=".75" height="2.09" transform="translate(-17.19 10.06) rotate(-48.66)"/>
        <path class="cls-1" d="M5.04,24.86c-.38,0-.69-.31-.69-.69s.31-.69.69-.69.69.31.69.69-.31.69-.69.69ZM5.04,24.11l-.06.06s.03.06.06.06v-.12Z"/>
        <path class="cls-1" d="M7.47,22.6c-.38,0-.69-.31-.69-.69s.31-.69.69-.69.69.31.69.69-.31.69-.69.69ZM7.47,21.85l-.06.06s.03.06.06.06v-.12Z"/>
      </g>
    </g>
  </g>
</svg>