<?xml version="1.0" encoding="UTF-8"?>
<svg id="_レイヤー_2" data-name="レイヤー 2" xmlns="http://www.w3.org/2000/svg" xmlns:xlink="http://www.w3.org/1999/xlink" viewBox="0 0 77.97 64.9">
  <defs>
    <style>
      .cls-1, .cls-2, .cls-3, .cls-4 {
        stroke-miterlimit: 10;
      }

      .cls-1, .cls-2, .cls-3, .cls-4, .cls-5, .cls-6, .cls-7, .cls-8, .cls-9 {
        stroke: #595757;
      }

      .cls-1, .cls-4, .cls-10, .cls-7 {
        fill: #fff;
      }

      .cls-2 {
        fill: #efefef;
      }

      .cls-2, .cls-3, .cls-4, .cls-5, .cls-6, .cls-7, .cls-8, .cls-9 {
        stroke-width: .75px;
      }

      .cls-3, .cls-5, .cls-11, .cls-8 {
        fill: none;
      }

      .cls-3, .cls-5, .cls-6, .cls-7 {
        stroke-linecap: round;
      }

      .cls-12 {
        fill: #231815;
      }

      .cls-12, .cls-13, .cls-11, .cls-10, .cls-14 {
        stroke-width: 0px;
      }

      .cls-13 {
        fill: url(#_10_dpi_30_);
        opacity: .84;
      }

      .cls-5, .cls-6, .cls-7, .cls-8, .cls-9 {
        stroke-linejoin: round;
      }

      .cls-6, .cls-14 {
        fill: #71c7d5;
      }

      .cls-9 {
        fill: #c9a063;
      }
    </style>
    <pattern id="_10_dpi_30_" data-name="10 dpi 30%" x="0" y="0" width="28.8" height="28.8" patternTransform="translate(-355.06 -350.11)" patternUnits="userSpaceOnUse" viewBox="0 0 28.8 28.8">
      <g>
        <rect class="cls-11" y="0" width="28.8" height="28.8"/>
        <g>
          <path class="cls-10" d="M28.8,30.96c1.19,0,2.16-.97,2.16-2.16s-.97-2.16-2.16-2.16-2.16.97-2.16,2.16.97,2.16,2.16,2.16Z"/>
          <path class="cls-10" d="M14.4,30.96c1.19,0,2.16-.97,2.16-2.16s-.97-2.16-2.16-2.16-2.16.97-2.16,2.16.97,2.16,2.16,2.16Z"/>
          <path class="cls-10" d="M28.8,16.56c1.19,0,2.16-.97,2.16-2.16s-.97-2.16-2.16-2.16-2.16.97-2.16,2.16.97,2.16,2.16,2.16Z"/>
          <path class="cls-10" d="M14.4,16.56c1.19,0,2.16-.97,2.16-2.16s-.97-2.16-2.16-2.16-2.16.97-2.16,2.16.97,2.16,2.16,2.16Z"/>
          <path class="cls-10" d="M7.2,23.76c1.19,0,2.16-.97,2.16-2.16s-.97-2.16-2.16-2.16-2.16.97-2.16,2.16.97,2.16,2.16,2.16Z"/>
          <path class="cls-10" d="M21.6,23.76c1.19,0,2.16-.97,2.16-2.16s-.97-2.16-2.16-2.16-2.16.97-2.16,2.16.97,2.16,2.16,2.16Z"/>
          <path class="cls-10" d="M7.2,9.36c1.19,0,2.16-.97,2.16-2.16s-.97-2.16-2.16-2.16-2.16.97-2.16,2.16.97,2.16,2.16,2.16Z"/>
          <path class="cls-10" d="M21.6,9.36c1.19,0,2.16-.97,2.16-2.16s-.97-2.16-2.16-2.16-2.16.97-2.16,2.16.97,2.16,2.16,2.16Z"/>
        </g>
        <g>
          <path class="cls-10" d="M0,30.96c1.19,0,2.16-.97,2.16-2.16S1.19,26.64,0,26.64s-2.16.97-2.16,2.16S-1.19,30.96,0,30.96Z"/>
          <path class="cls-10" d="M0,16.56c1.19,0,2.16-.97,2.16-2.16S1.19,12.24,0,12.24s-2.16.97-2.16,2.16S-1.19,16.56,0,16.56Z"/>
        </g>
        <g>
          <path class="cls-10" d="M28.8,2.16c1.19,0,2.16-.97,2.16-2.16s-.97-2.16-2.16-2.16S26.64-1.19,26.64,0s.97,2.16,2.16,2.16Z"/>
          <path class="cls-10" d="M14.4,2.16c1.19,0,2.16-.97,2.16-2.16s-.97-2.16-2.16-2.16S12.24-1.19,12.24,0s.97,2.16,2.16,2.16Z"/>
        </g>
        <path class="cls-10" d="M0,2.16C1.19,2.16,2.16,1.19,2.16,0S1.19-2.16,0-2.16-2.16-1.19-2.16,0-1.19,2.16,0,2.16Z"/>
      </g>
    </pattern>
  </defs>
  <g id="_制作レイヤー" data-name="制作レイヤー">
    <g>
      <g>
        <polygon class="cls-9" points="1.08 53.52 1.08 64.52 6.96 64.52 6.96 58.02 72.39 58.02 72.39 64.52 77.6 64.52 77.6 31.24 72.39 31.24 72.39 53.34 1.08 53.52"/>
        <path class="cls-2" d="M1.08,53.52s-1.6-2.83,0-4.58,72.43-1.92,71.06-.02c0,0,.6,2.73-.16,4.07l-70.91.53Z"/>
        <g>
          <g>
            <path class="cls-10" d="M49.03,30.38s4.16,4.8,2.36,17.92c0,0-48.09,4.39-49.79-1.26,0,0-1.92-6.27.51-9.61.68-.94,2.77-3.11,5.96-5.4,0,.01-1.62,7.69,1.06,10.16,2.68,2.46,34.74.45,34.74.45,3.22-6.79-.5-14.09-1.28-15.48,2.11.83,4.25,1.89,6.44,3.22Z"/>
            <path class="cls-14" d="M42.59,27.16c.78,1.39,4.5,8.69,1.28,15.48,0,0-32.06,2.01-34.74-.45-2.68-2.47-1.06-10.15-1.06-10.16,7.1-5.09,19.67-10.75,34.52-4.87Z"/>
          </g>
          <g>
            <path class="cls-8" d="M8.07,32.03c-3.19,2.29-5.28,4.46-5.96,5.4-2.43,3.34-.51,9.61-.51,9.61,1.7,5.65,49.79,1.26,49.79,1.26,1.8-13.12-2.36-17.92-2.36-17.92-2.19-1.33-4.33-2.39-6.44-3.22"/>
            <path class="cls-8" d="M8.07,32.03s-1.62,7.69,1.06,10.16c2.68,2.46,34.74.45,34.74.45,3.22-6.79-.5-14.09-1.28-15.48-14.85-5.88-27.42-.22-34.52,4.87Z"/>
          </g>
        </g>
        <path class="cls-4" d="M51.39,46.25c7.55,5.79,11.33.39,11.33.39,1.12,1.43,4.62,1.12,5.33.06s-3.09-4.69-3.09-4.69c2.99-6.33-.98-10.35-.98-10.35.35-1.44.73-2.82.29-4.04-2.52-.85-5.62,1.73-5.62,1.73-7.03-4.89-9.15,1.7-9.15,1.7l-.48-.66s4.16,4.81,2.37,17.92"/>
        <path class="cls-13" d="M9.13,42.66c2.68,2.47,34.74.45,34.74.45,3.22-6.79-.5-14.09-1.28-15.47-14.85-5.88-27.42-.22-34.52,4.87,0,0-1.62,7.69,1.05,10.15Z"/>
        <path class="cls-3" d="M57.39,31.05s-1.71,2.46.2,3.46"/>
        <path class="cls-3" d="M58.32,39.59s-1.59,3.44.78,4.95"/>
        <path class="cls-5" d="M54.17,34.15s-1.47,1.96.36,2.68c0,0-1.2,2.77.34,3.24"/>
        <g>
          <path class="cls-1" d="M67.62,36.4c0,.66-.61,1.32-.69,2.02s.36,1.48.21,2.12c-.17.73-.91,1.23-1.16,1.78-.38.86-.58,1.8-1.1,1.8s-.68-.98-1.01-1.89c-.21-.57-.93-1.12-1.06-1.87-.12-.66.35-1.44.29-2.15s-.66-1.4-.66-2.06c0-.55.55-1.1.54-1.6-.02-.57-.61-1.09-.62-1.58-.01-.62.56-1.12.63-1.54.11-.69.09-1.42.65-1.42.48,0,.86.82,1.42,1.39.4.41,1.24.6,1.56,1.21.29.53,0,1.34.17,1.98.16.6.81,1.16.81,1.82Z"/>
          <path class="cls-5" d="M67.62,36.4c0,.66-.61,1.32-.69,2.02s.36,1.48.21,2.12c-.17.73-.91,1.23-1.16,1.78-.38.86-.58,1.8-1.1,1.8s-.68-.98-1.01-1.89c-.21-.57-.93-1.12-1.06-1.87-.12-.66.35-1.44.29-2.15s-.66-1.4-.66-2.06c0-.55.55-1.1.54-1.6-.02-.57-.61-1.09-.62-1.58-.01-.62.56-1.12.63-1.54.11-.69.09-1.42.65-1.42.48,0,.86.82,1.42,1.39.4.41,1.24.6,1.56,1.21.29.53,0,1.34.17,1.98.16.6.81,1.16.81,1.82Z"/>
        </g>
        <g>
          <path class="cls-1" d="M63.66,30.01c.48,0,.86.82,1.42,1.39.4.41,1.24.6,1.56,1.21.29.53,0,1.34.17,1.98.16.6.81,1.16.81,1.82s-.61,1.32-.69,2.02.36,1.48.21,2.12c-.17.73-.91,1.23-1.16,1.78-.38.86-.58,1.8-1.1,1.8"/>
          <path class="cls-5" d="M63.66,30.01c.48,0,.86.82,1.42,1.39.4.41,1.24.6,1.56,1.21.29.53,0,1.34.17,1.98.16.6.81,1.16.81,1.82s-.61,1.32-.69,2.02.36,1.48.21,2.12c-.17.73-.91,1.23-1.16,1.78-.38.86-.58,1.8-1.1,1.8"/>
        </g>
        <path class="cls-1" d="M63.66,30.01c.48,0,.86.82,1.42,1.39.4.41,1.24.6,1.56,1.21.29.53,0,1.34.17,1.98.16.6.81,1.16.81,1.82s-.61,1.32-.69,2.02.36,1.48.21,2.12c-.17.73-.91,1.23-1.16,1.78-.38.86-.58,1.8-1.1,1.8"/>
        <path class="cls-6" d="M65.84,43.18s1.75.14,2.57-1.21l.21-2.38c-.77,1.45.55,10.6,1.96,7.15s.94-4.72,1.62-9.68-7.19-6.58-7.19-6.58l-1.34-.48c.48,0,.86.82,1.42,1.39.4.41,1.24.6,1.56,1.21.29.53,0,1.34.17,1.98.16.6.81,1.16.81,1.82s-.61,1.32-.69,2.02.36,1.48.21,2.12c-.17.73-.91,1.23-1.16,1.78-.38.86-.58,1.8-1.1,1.8l.94-.94Z"/>
        <path class="cls-4" d="M50.19,32.47c-6.42,1.18-2.62-2.85-2.62-2.85,0,0,3.51-.53,2.62,2.85"/>
        <path class="cls-4" d="M51.84,42.56c-1.18-1.48-6.68,1.56-.47,3.15,0,0,2.5-.87.47-3.15"/>
        <path class="cls-3" d="M57.41,46.61s.78.39,1.17,3.31"/>
        <path class="cls-3" d="M55.47,47.12s.68,1.21.51,3.64"/>
        <path class="cls-3" d="M54.24,29.59s-.22-2.09-1.41-4.04"/>
        <path class="cls-3" d="M52.15,30.01s-.39-1.81-2.3-3.31"/>
        <path class="cls-7" d="M72.43,49.93c0,.42-.64.68-.82,1.02-.19.36-.06,1.03-.4,1.24s-.87-.19-1.28-.19-.95.4-1.28.19-.21-.88-.4-1.24c-.18-.34-.82-.6-.82-1.02s.64-.68.82-1.02c.19-.36.06-1.03.4-1.24s.87.19,1.28.19.95-.4,1.28-.19.21.88.4,1.24c.18.34.82.6.82,1.02Z"/>
      </g>
      <g>
        <path class="cls-12" d="M34.64.84c.21-.05.67-.18,1.4-.37.71-.18,1.44-.32,2.23-.41.78-.08,1.3-.08,1.54,0,.26.08.4.15.43.22.02.07-.07.23-.29.5-.23.27-.52.61-.92,1.03-.38.42-.9,1.01-1.56,1.74,1.14.3,1.76.49,1.87.56.1.06.17.12.21.17.02.05-.03.11-.19.16s-.47,0-.97-.14c-.5-.14-.92-.22-1.23-.26-.93.73-1.71,1.6-2.35,2.59.19.06.66.06,1.44,0,.78-.07,1.45-.17,2.04-.3.59-.12.92-.19,1.04-.21.1-.02.26-.03.45-.03s.35.03.43.08c.09.06.1.12.05.21-.07.09-.19.13-.36.13s-.73.08-1.66.24c-.92.17-1.75.27-2.46.3-.71.03-1.19.05-1.47.06-.29.01-.38-.12-.29-.41.09-.27.4-.67.92-1.19.5-.52.97-1.03,1.37-1.57-.26-.1-.45-.16-.61-.19-.16-.01-.29-.04-.4-.08-.12-.03-.17-.13-.14-.3.02-.16.19-.2.54-.12.35.07.69.14,1.07.19,1.31-1.41,2.2-2.41,2.68-2.99-.71-.07-1.49-.02-2.34.19-.85.2-1.47.37-1.89.52-.43.14-.67.19-.8.14-.12-.05-.17-.12-.16-.23.03-.09.16-.16.36-.22Z"/>
        <path class="cls-12" d="M42.63,9.08c.17-.08.53-.26,1.11-.55.56-.27,1.15-.51,1.8-.72.64-.2,1.07-.29,1.29-.27.23.02.36.06.4.11.03.06-.02.2-.16.47-.14.26-.33.6-.59,1.02-.25.42-.58,1-1.01,1.72,1.01.06,1.56.11,1.66.15.1.03.17.07.2.11.02.04-.01.1-.13.17-.12.07-.39.09-.83.05-.44-.03-.8-.03-1.07-.01-.66.77-1.16,1.63-1.53,2.56.17.02.56-.06,1.2-.24.64-.19,1.19-.39,1.66-.6.47-.2.74-.31.83-.35.08-.03.21-.07.37-.1.16-.03.29-.03.38,0,.08.04.11.08.08.17-.04.09-.14.14-.28.17-.14.03-.59.19-1.35.48-.74.3-1.42.52-2,.67-.59.15-.99.24-1.22.3-.24.06-.34-.04-.32-.29.03-.24.22-.63.57-1.15.33-.52.64-1.02.88-1.54-.23-.04-.4-.06-.54-.06-.13.02-.25.02-.35,0-.11,0-.17-.08-.17-.23-.01-.14.13-.2.43-.19.3,0,.6,0,.93-.02.86-1.4,1.43-2.39,1.74-2.95-.61.06-1.25.23-1.92.55-.68.31-1.17.56-1.49.75-.34.19-.53.27-.64.25-.11-.02-.17-.07-.17-.17.01-.08.1-.16.27-.25Z"/>
        <path class="cls-12" d="M50.57,15.78c.12-.06.37-.2.77-.42.39-.21.8-.39,1.25-.56.45-.16.75-.23.9-.23.16,0,.26.03.29.07.02.04,0,.14-.1.33s-.22.43-.39.74c-.16.3-.38.72-.67,1.24.71.01,1.11.04,1.18.06.07.02.12.05.15.07.02.03,0,.07-.09.12-.08.05-.27.07-.59.06-.32-.01-.57,0-.76.02-.45.56-.78,1.18-1.01,1.86.12,0,.39-.06.84-.21.45-.15.83-.31,1.16-.47.33-.15.51-.24.58-.27.06-.03.15-.05.26-.08.11-.03.21-.03.27-.02.06.02.08.06.06.12-.03.06-.09.1-.2.13-.1.02-.42.15-.94.38-.51.23-.99.41-1.4.53-.41.12-.69.2-.86.25-.17.05-.24-.02-.23-.2.01-.17.14-.45.37-.83.22-.38.42-.74.58-1.12-.17-.02-.29-.03-.38-.02-.09.02-.18.02-.25,0-.08,0-.12-.05-.12-.16-.01-.1.08-.14.3-.15.21,0,.43-.02.66-.04.57-1.02.95-1.73,1.15-2.14-.43.06-.88.2-1.35.45-.47.24-.81.43-1.04.58-.23.14-.37.21-.45.2-.08-.01-.12-.05-.12-.11,0-.06.07-.12.18-.18Z"/>
      </g>
    </g>
  </g>
</svg>